{"asset":{"generator":"Khronos glTF Blender I/O v5.0.21","version":"2.0","extras":{"bin_sha1":"f53a5779b0174770973e197a2f8ec329e2f17bba"}},"scene":0,"scenes":[{"name":"Scene","nodes":[10]}],"nodes":[{"name":"Cene","rotation":[0.04238252341747284,0,0,0.999101459980011],"translation":[0,0.1032271683216095,-0.2223602533340454]},{"children":[0],"name":"Kafa","rotation":[-0.7833356857299805,0,0,0.6215988993644714],"translation":[0,0.34999990463256836,-0.4000000059604645]},{"name":"KolSol","rotation":[-0.9762120842933655,0.15238787233829498,0.15238778293132782,0.023787910118699074],"scale":[1.0000003576278687,1,0.9999999403953552],"translation":[-0.7200000286102295,0.25,0]},{"name":"KolSag","rotation":[-0.9762120842933655,-0.15238787233829498,-0.15238778293132782,0.023787910118699074],"scale":[1.0000003576278687,1,0.9999999403953552],"translation":[0.7200000286102295,0.25,0]},{"children":[1,2,3],"name":"Govde","translation":[0,0.40000009536743164,0]},{"name":"BacakSol","rotation":[-0.9989626407623291,0.03219122439622879,0.03219113126397133,0.0010373455006629229],"scale":[1.0000042915344238,1.0000003576278687,0.9999999403953552],"translation":[-0.41999998688697815,0,0]},{"name":"BacakSag","rotation":[-0.9989626407623291,-0.03219122439622879,-0.03219113126397133,0.0010373455006629229],"scale":[1.0000042915344238,1.0000003576278687,0.9999999403953552],"translation":[0.41999998688697815,0,0]},{"name":"Kuyruk","rotation":[0.5429711937904358,0,0,0.8397513628005981],"scale":[1,0.9999999403953552,0.9999999403953552],"translation":[0,0.30000007152557373,0.550000011920929]},{"children":[4,5,6,7],"name":"Kok","translation":[0,1.0499999523162842,0]},{"mesh":0,"name":"boss","skin":0},{"children":[9,8],"name":"iskelet"}],"animations":[{"channels":[{"sampler":0,"target":{"node":8,"path":"translation"}},{"sampler":1,"target":{"node":8,"path":"rotation"}},{"sampler":2,"target":{"node":8,"path":"scale"}},{"sampler":3,"target":{"node":4,"path":"translation"}},{"sampler":4,"target":{"node":4,"path":"rotation"}},{"sampler":5,"target":{"node":4,"path":"scale"}},{"sampler":6,"target":{"node":1,"path":"translation"}},{"sampler":7,"target":{"node":1,"path":"rotation"}},{"sampler":8,"target":{"node":1,"path":"scale"}},{"sampler":9,"target":{"node":0,"path":"translation"}},{"sampler":10,"target":{"node":0,"path":"rotation"}},{"sampler":11,"target":{"node":0,"path":"scale"}},{"sampler":12,"target":{"node":2,"path":"translation"}},{"sampler":13,"target":{"node":2,"path":"rotation"}},{"sampler":14,"target":{"node":2,"path":"scale"}},{"sampler":15,"target":{"node":3,"path":"translation"}},{"sampler":16,"target":{"node":3,"path":"rotation"}},{"sampler":17,"target":{"node":3,"path":"scale"}},{"sampler":18,"target":{"node":5,"path":"translation"}},{"sampler":19,"target":{"node":5,"path":"rotation"}},{"sampler":20,"target":{"node":5,"path":"scale"}},{"sampler":21,"target":{"node":6,"path":"translation"}},{"sampler":22,"target":{"node":6,"path":"rotation"}},{"sampler":23,"target":{"node":6,"path":"scale"}},{"sampler":24,"target":{"node":7,"path":"translation"}},{"sampler":25,"target":{"node":7,"path":"rotation"}},{"sampler":26,"target":{"node":7,"path":"scale"}}],"name":"atis","samplers":[{"input":7,"interpolation":"LINEAR","output":8},{"input":7,"interpolation":"LINEAR","output":9},{"input":7,"interpolation":"LINEAR","output":10},{"input":7,"interpolation":"LINEAR","output":11},{"input":7,"interpolation":"LINEAR","output":12},{"input":7,"interpolation":"LINEAR","output":13},{"input":7,"interpolation":"LINEAR","output":14},{"input":7,"interpolation":"LINEAR","output":15},{"input":7,"interpolation":"LINEAR","output":16},{"input":7,"interpolation":"LINEAR","output":17},{"input":7,"interpolation":"LINEAR","output":18},{"input":7,"interpolation":"LINEAR","output":19},{"input":7,"interpolation":"LINEAR","output":20},{"input":7,"interpolation":"LINEAR","output":21},{"input":7,"interpolation":"LINEAR","output":22},{"input":7,"interpolation":"LINEAR","output":23},{"input":7,"interpolation":"LINEAR","output":24},{"input":7,"interpolation":"LINEAR","output":22},{"input":7,"interpolation":"LINEAR","output":25},{"input":7,"interpolation":"LINEAR","output":26},{"input":7,"interpolation":"LINEAR","output":27},{"input":7,"interpolation":"LINEAR","output":28},{"input":7,"interpolation":"LINEAR","output":29},{"input":7,"interpolation":"LINEAR","output":27},{"input":7,"interpolation":"LINEAR","output":30},{"input":7,"interpolation":"LINEAR","output":31},{"input":7,"interpolation":"LINEAR","output":32}]},{"channels":[{"sampler":0,"target":{"node":8,"path":"translation"}},{"sampler":1,"target":{"node":8,"path":"rotation"}},{"sampler":2,"target":{"node":8,"path":"scale"}},{"sampler":3,"target":{"node":4,"path":"translation"}},{"sampler":4,"target":{"node":4,"path":"rotation"}},{"sampler":5,"target":{"node":4,"path":"scale"}},{"sampler":6,"target":{"node":1,"path":"translation"}},{"sampler":7,"target":{"node":1,"path":"rotation"}},{"sampler":8,"target":{"node":1,"path":"scale"}},{"sampler":9,"target":{"node":0,"path":"translation"}},{"sampler":10,"target":{"node":0,"path":"rotation"}},{"sampler":11,"target":{"node":0,"path":"scale"}},{"sampler":12,"target":{"node":2,"path":"translation"}},{"sampler":13,"target":{"node":2,"path":"rotation"}},{"sampler":14,"target":{"node":2,"path":"scale"}},{"sampler":15,"target":{"node":3,"path":"translation"}},{"sampler":16,"target":{"node":3,"path":"rotation"}},{"sampler":17,"target":{"node":3,"path":"scale"}},{"sampler":18,"target":{"node":5,"path":"translation"}},{"sampler":19,"target":{"node":5,"path":"rotation"}},{"sampler":20,"target":{"node":5,"path":"scale"}},{"sampler":21,"target":{"node":6,"path":"translation"}},{"sampler":22,"target":{"node":6,"path":"rotation"}},{"sampler":23,"target":{"node":6,"path":"scale"}},{"sampler":24,"target":{"node":7,"path":"translation"}},{"sampler":25,"target":{"node":7,"path":"rotation"}},{"sampler":26,"target":{"node":7,"path":"scale"}}],"name":"bosta","samplers":[{"input":33,"interpolation":"LINEAR","output":34},{"input":33,"interpolation":"LINEAR","output":35},{"input":33,"interpolation":"LINEAR","output":36},{"input":33,"interpolation":"LINEAR","output":37},{"input":33,"interpolation":"LINEAR","output":38},{"input":33,"interpolation":"LINEAR","output":39},{"input":33,"interpolation":"LINEAR","output":40},{"input":33,"interpolation":"LINEAR","output":41},{"input":33,"interpolation":"LINEAR","output":42},{"input":33,"interpolation":"LINEAR","output":43},{"input":33,"interpolation":"LINEAR","output":44},{"input":33,"interpolation":"LINEAR","output":45},{"input":33,"interpolation":"LINEAR","output":46},{"input":33,"interpolation":"LINEAR","output":47},{"input":33,"interpolation":"LINEAR","output":48},{"input":33,"interpolation":"LINEAR","output":49},{"input":33,"interpolation":"LINEAR","output":50},{"input":33,"interpolation":"LINEAR","output":48},{"input":33,"interpolation":"LINEAR","output":51},{"input":33,"interpolation":"LINEAR","output":52},{"input":33,"interpolation":"LINEAR","output":53},{"input":33,"interpolation":"LINEAR","output":54},{"input":33,"interpolation":"LINEAR","output":55},{"input":33,"interpolation":"LINEAR","output":53},{"input":33,"interpolation":"LINEAR","output":56},{"input":33,"interpolation":"LINEAR","output":57},{"input":33,"interpolation":"LINEAR","output":58}]},{"channels":[{"sampler":0,"target":{"node":8,"path":"translation"}},{"sampler":1,"target":{"node":8,"path":"rotation"}},{"sampler":2,"target":{"node":8,"path":"scale"}},{"sampler":3,"target":{"node":4,"path":"translation"}},{"sampler":4,"target":{"node":4,"path":"rotation"}},{"sampler":5,"target":{"node":4,"path":"scale"}},{"sampler":6,"target":{"node":1,"path":"translation"}},{"sampler":7,"target":{"node":1,"path":"rotation"}},{"sampler":8,"target":{"node":1,"path":"scale"}},{"sampler":9,"target":{"node":0,"path":"translation"}},{"sampler":10,"target":{"node":0,"path":"rotation"}},{"sampler":11,"target":{"node":0,"path":"scale"}},{"sampler":12,"target":{"node":2,"path":"translation"}},{"sampler":13,"target":{"node":2,"path":"rotation"}},{"sampler":14,"target":{"node":2,"path":"scale"}},{"sampler":15,"target":{"node":3,"path":"translation"}},{"sampler":16,"target":{"node":3,"path":"rotation"}},{"sampler":17,"target":{"node":3,"path":"scale"}},{"sampler":18,"target":{"node":5,"path":"translation"}},{"sampler":19,"target":{"node":5,"path":"rotation"}},{"sampler":20,"target":{"node":5,"path":"scale"}},{"sampler":21,"target":{"node":6,"path":"translation"}},{"sampler":22,"target":{"node":6,"path":"rotation"}},{"sampler":23,"target":{"node":6,"path":"scale"}},{"sampler":24,"target":{"node":7,"path":"translation"}},{"sampler":25,"target":{"node":7,"path":"rotation"}},{"sampler":26,"target":{"node":7,"path":"scale"}}],"name":"carpma","samplers":[{"input":59,"interpolation":"LINEAR","output":60},{"input":59,"interpolation":"LINEAR","output":61},{"input":59,"interpolation":"LINEAR","output":62},{"input":59,"interpolation":"LINEAR","output":63},{"input":59,"interpolation":"LINEAR","output":64},{"input":59,"interpolation":"LINEAR","output":65},{"input":59,"interpolation":"LINEAR","output":66},{"input":59,"interpolation":"LINEAR","output":67},{"input":59,"interpolation":"LINEAR","output":68},{"input":59,"interpolation":"LINEAR","output":69},{"input":59,"interpolation":"LINEAR","output":70},{"input":59,"interpolation":"LINEAR","output":71},{"input":59,"interpolation":"LINEAR","output":72},{"input":59,"interpolation":"LINEAR","output":73},{"input":59,"interpolation":"LINEAR","output":74},{"input":59,"interpolation":"LINEAR","output":75},{"input":59,"interpolation":"LINEAR","output":76},{"input":59,"interpolation":"LINEAR","output":74},{"input":59,"interpolation":"LINEAR","output":77},{"input":59,"interpolation":"LINEAR","output":78},{"input":59,"interpolation":"LINEAR","output":79},{"input":59,"interpolation":"LINEAR","output":80},{"input":59,"interpolation":"LINEAR","output":81},{"input":59,"interpolation":"LINEAR","output":79},{"input":59,"interpolation":"LINEAR","output":82},{"input":59,"interpolation":"LINEAR","output":83},{"input":59,"interpolation":"LINEAR","output":84}]},{"channels":[{"sampler":0,"target":{"node":8,"path":"translation"}},{"sampler":1,"target":{"node":8,"path":"rotation"}},{"sampler":2,"target":{"node":8,"path":"scale"}},{"sampler":3,"target":{"node":4,"path":"translation"}},{"sampler":4,"target":{"node":4,"path":"rotation"}},{"sampler":5,"target":{"node":4,"path":"scale"}},{"sampler":6,"target":{"node":1,"path":"translation"}},{"sampler":7,"target":{"node":1,"path":"rotation"}},{"sampler":8,"target":{"node":1,"path":"scale"}},{"sampler":9,"target":{"node":0,"path":"translation"}},{"sampler":10,"target":{"node":0,"path":"rotation"}},{"sampler":11,"target":{"node":0,"path":"scale"}},{"sampler":12,"target":{"node":2,"path":"translation"}},{"sampler":13,"target":{"node":2,"path":"rotation"}},{"sampler":14,"target":{"node":2,"path":"scale"}},{"sampler":15,"target":{"node":3,"path":"translation"}},{"sampler":16,"target":{"node":3,"path":"rotation"}},{"sampler":17,"target":{"node":3,"path":"scale"}},{"sampler":18,"target":{"node":5,"path":"translation"}},{"sampler":19,"target":{"node":5,"path":"rotation"}},{"sampler":20,"target":{"node":5,"path":"scale"}},{"sampler":21,"target":{"node":6,"path":"translation"}},{"sampler":22,"target":{"node":6,"path":"rotation"}},{"sampler":23,"target":{"node":6,"path":"scale"}},{"sampler":24,"target":{"node":7,"path":"translation"}},{"sampler":25,"target":{"node":7,"path":"rotation"}},{"sampler":26,"target":{"node":7,"path":"scale"}}],"name":"kukreme","samplers":[{"input":59,"interpolation":"LINEAR","output":85},{"input":59,"interpolation":"LINEAR","output":86},{"input":59,"interpolation":"LINEAR","output":87},{"input":59,"interpolation":"LINEAR","output":88},{"input":59,"interpolation":"LINEAR","output":89},{"input":59,"interpolation":"LINEAR","output":90},{"input":59,"interpolation":"LINEAR","output":91},{"input":59,"interpolation":"LINEAR","output":92},{"input":59,"interpolation":"LINEAR","output":93},{"input":59,"interpolation":"LINEAR","output":94},{"input":59,"interpolation":"LINEAR","output":95},{"input":59,"interpolation":"LINEAR","output":96},{"input":59,"interpolation":"LINEAR","output":97},{"input":59,"interpolation":"LINEAR","output":98},{"input":59,"interpolation":"LINEAR","output":99},{"input":59,"interpolation":"LINEAR","output":100},{"input":59,"interpolation":"LINEAR","output":101},{"input":59,"interpolation":"LINEAR","output":99},{"input":59,"interpolation":"LINEAR","output":102},{"input":59,"interpolation":"LINEAR","output":103},{"input":59,"interpolation":"LINEAR","output":104},{"input":59,"interpolation":"LINEAR","output":105},{"input":59,"interpolation":"LINEAR","output":106},{"input":59,"interpolation":"LINEAR","output":104},{"input":59,"interpolation":"LINEAR","output":107},{"input":59,"interpolation":"LINEAR","output":108},{"input":59,"interpolation":"LINEAR","output":109}]},{"channels":[{"sampler":0,"target":{"node":8,"path":"translation"}},{"sampler":1,"target":{"node":8,"path":"rotation"}},{"sampler":2,"target":{"node":8,"path":"scale"}},{"sampler":3,"target":{"node":4,"path":"translation"}},{"sampler":4,"target":{"node":4,"path":"rotation"}},{"sampler":5,"target":{"node":4,"path":"scale"}},{"sampler":6,"target":{"node":1,"path":"translation"}},{"sampler":7,"target":{"node":1,"path":"rotation"}},{"sampler":8,"target":{"node":1,"path":"scale"}},{"sampler":9,"target":{"node":0,"path":"translation"}},{"sampler":10,"target":{"node":0,"path":"rotation"}},{"sampler":11,"target":{"node":0,"path":"scale"}},{"sampler":12,"target":{"node":2,"path":"translation"}},{"sampler":13,"target":{"node":2,"path":"rotation"}},{"sampler":14,"target":{"node":2,"path":"scale"}},{"sampler":15,"target":{"node":3,"path":"translation"}},{"sampler":16,"target":{"node":3,"path":"rotation"}},{"sampler":17,"target":{"node":3,"path":"scale"}},{"sampler":18,"target":{"node":5,"path":"translation"}},{"sampler":19,"target":{"node":5,"path":"rotation"}},{"sampler":20,"target":{"node":5,"path":"scale"}},{"sampler":21,"target":{"node":6,"path":"translation"}},{"sampler":22,"target":{"node":6,"path":"rotation"}},{"sampler":23,"target":{"node":6,"path":"scale"}},{"sampler":24,"target":{"node":7,"path":"translation"}},{"sampler":25,"target":{"node":7,"path":"rotation"}},{"sampler":26,"target":{"node":7,"path":"scale"}}],"name":"sarsilma","samplers":[{"input":110,"interpolation":"LINEAR","output":111},{"input":110,"interpolation":"LINEAR","output":112},{"input":110,"interpolation":"LINEAR","output":113},{"input":110,"interpolation":"LINEAR","output":114},{"input":110,"interpolation":"LINEAR","output":115},{"input":110,"interpolation":"LINEAR","output":116},{"input":110,"interpolation":"LINEAR","output":117},{"input":110,"interpolation":"LINEAR","output":118},{"input":110,"interpolation":"LINEAR","output":119},{"input":110,"interpolation":"LINEAR","output":120},{"input":110,"interpolation":"LINEAR","output":121},{"input":110,"interpolation":"LINEAR","output":122},{"input":110,"interpolation":"LINEAR","output":123},{"input":110,"interpolation":"LINEAR","output":124},{"input":110,"interpolation":"LINEAR","output":125},{"input":110,"interpolation":"LINEAR","output":126},{"input":110,"interpolation":"LINEAR","output":127},{"input":110,"interpolation":"LINEAR","output":125},{"input":110,"interpolation":"LINEAR","output":128},{"input":110,"interpolation":"LINEAR","output":129},{"input":110,"interpolation":"LINEAR","output":130},{"input":110,"interpolation":"LINEAR","output":131},{"input":110,"interpolation":"LINEAR","output":132},{"input":110,"interpolation":"LINEAR","output":130},{"input":110,"interpolation":"LINEAR","output":133},{"input":110,"interpolation":"LINEAR","output":134},{"input":110,"interpolation":"LINEAR","output":135}]},{"channels":[{"sampler":0,"target":{"node":8,"path":"translation"}},{"sampler":1,"target":{"node":8,"path":"rotation"}},{"sampler":2,"target":{"node":8,"path":"scale"}},{"sampler":3,"target":{"node":4,"path":"translation"}},{"sampler":4,"target":{"node":4,"path":"rotation"}},{"sampler":5,"target":{"node":4,"path":"scale"}},{"sampler":6,"target":{"node":1,"path":"translation"}},{"sampler":7,"target":{"node":1,"path":"rotation"}},{"sampler":8,"target":{"node":1,"path":"scale"}},{"sampler":9,"target":{"node":0,"path":"translation"}},{"sampler":10,"target":{"node":0,"path":"rotation"}},{"sampler":11,"target":{"node":0,"path":"scale"}},{"sampler":12,"target":{"node":2,"path":"translation"}},{"sampler":13,"target":{"node":2,"path":"rotation"}},{"sampler":14,"target":{"node":2,"path":"scale"}},{"sampler":15,"target":{"node":3,"path":"translation"}},{"sampler":16,"target":{"node":3,"path":"rotation"}},{"sampler":17,"target":{"node":3,"path":"scale"}},{"sampler":18,"target":{"node":5,"path":"translation"}},{"sampler":19,"target":{"node":5,"path":"rotation"}},{"sampler":20,"target":{"node":5,"path":"scale"}},{"sampler":21,"target":{"node":6,"path":"translation"}},{"sampler":22,"target":{"node":6,"path":"rotation"}},{"sampler":23,"target":{"node":6,"path":"scale"}},{"sampler":24,"target":{"node":7,"path":"translation"}},{"sampler":25,"target":{"node":7,"path":"rotation"}},{"sampler":26,"target":{"node":7,"path":"scale"}}],"name":"sersem","samplers":[{"input":136,"interpolation":"LINEAR","output":137},{"input":136,"interpolation":"LINEAR","output":138},{"input":136,"interpolation":"LINEAR","output":139},{"input":136,"interpolation":"LINEAR","output":140},{"input":136,"interpolation":"LINEAR","output":141},{"input":136,"interpolation":"LINEAR","output":142},{"input":136,"interpolation":"LINEAR","output":143},{"input":136,"interpolation":"LINEAR","output":144},{"input":136,"interpolation":"LINEAR","output":145},{"input":136,"interpolation":"LINEAR","output":146},{"input":136,"interpolation":"LINEAR","output":147},{"input":136,"interpolation":"LINEAR","output":148},{"input":136,"interpolation":"LINEAR","output":149},{"input":136,"interpolation":"LINEAR","output":150},{"input":136,"interpolation":"LINEAR","output":151},{"input":136,"interpolation":"LINEAR","output":152},{"input":136,"interpolation":"LINEAR","output":153},{"input":136,"interpolation":"LINEAR","output":151},{"input":136,"interpolation":"LINEAR","output":154},{"input":136,"interpolation":"LINEAR","output":155},{"input":136,"interpolation":"LINEAR","output":156},{"input":136,"interpolation":"LINEAR","output":157},{"input":136,"interpolation":"LINEAR","output":158},{"input":136,"interpolation":"LINEAR","output":159},{"input":136,"interpolation":"LINEAR","output":160},{"input":136,"interpolation":"LINEAR","output":161},{"input":136,"interpolation":"LINEAR","output":162}]},{"channels":[{"sampler":0,"target":{"node":8,"path":"translation"}},{"sampler":1,"target":{"node":8,"path":"rotation"}},{"sampler":2,"target":{"node":8,"path":"scale"}},{"sampler":3,"target":{"node":4,"path":"translation"}},{"sampler":4,"target":{"node":4,"path":"rotation"}},{"sampler":5,"target":{"node":4,"path":"scale"}},{"sampler":6,"target":{"node":1,"path":"translation"}},{"sampler":7,"target":{"node":1,"path":"rotation"}},{"sampler":8,"target":{"node":1,"path":"scale"}},{"sampler":9,"target":{"node":0,"path":"translation"}},{"sampler":10,"target":{"node":0,"path":"rotation"}},{"sampler":11,"target":{"node":0,"path":"scale"}},{"sampler":12,"target":{"node":2,"path":"translation"}},{"sampler":13,"target":{"node":2,"path":"rotation"}},{"sampler":14,"target":{"node":2,"path":"scale"}},{"sampler":15,"target":{"node":3,"path":"translation"}},{"sampler":16,"target":{"node":3,"path":"rotation"}},{"sampler":17,"target":{"node":3,"path":"scale"}},{"sampler":18,"target":{"node":5,"path":"translation"}},{"sampler":19,"target":{"node":5,"path":"rotation"}},{"sampler":20,"target":{"node":5,"path":"scale"}},{"sampler":21,"target":{"node":6,"path":"translation"}},{"sampler":22,"target":{"node":6,"path":"rotation"}},{"sampler":23,"target":{"node":6,"path":"scale"}},{"sampler":24,"target":{"node":7,"path":"translation"}},{"sampler":25,"target":{"node":7,"path":"rotation"}},{"sampler":26,"target":{"node":7,"path":"scale"}}],"name":"yenildi","samplers":[{"input":163,"interpolation":"LINEAR","output":164},{"input":163,"interpolation":"LINEAR","output":165},{"input":163,"interpolation":"LINEAR","output":166},{"input":163,"interpolation":"LINEAR","output":167},{"input":163,"interpolation":"LINEAR","output":168},{"input":163,"interpolation":"LINEAR","output":169},{"input":163,"interpolation":"LINEAR","output":170},{"input":163,"interpolation":"LINEAR","output":171},{"input":163,"interpolation":"LINEAR","output":172},{"input":163,"interpolation":"LINEAR","output":173},{"input":163,"interpolation":"LINEAR","output":174},{"input":163,"interpolation":"LINEAR","output":175},{"input":163,"interpolation":"LINEAR","output":176},{"input":163,"interpolation":"LINEAR","output":177},{"input":163,"interpolation":"LINEAR","output":178},{"input":163,"interpolation":"LINEAR","output":179},{"input":163,"interpolation":"LINEAR","output":180},{"input":163,"interpolation":"LINEAR","output":178},{"input":163,"interpolation":"LINEAR","output":181},{"input":163,"interpolation":"LINEAR","output":182},{"input":163,"interpolation":"LINEAR","output":183},{"input":163,"interpolation":"LINEAR","output":184},{"input":163,"interpolation":"LINEAR","output":185},{"input":163,"interpolation":"LINEAR","output":183},{"input":163,"interpolation":"LINEAR","output":186},{"input":163,"interpolation":"LINEAR","output":187},{"input":163,"interpolation":"LINEAR","output":188}]},{"channels":[{"sampler":0,"target":{"node":8,"path":"translation"}},{"sampler":1,"target":{"node":8,"path":"rotation"}},{"sampler":2,"target":{"node":8,"path":"scale"}},{"sampler":3,"target":{"node":4,"path":"translation"}},{"sampler":4,"target":{"node":4,"path":"rotation"}},{"sampler":5,"target":{"node":4,"path":"scale"}},{"sampler":6,"target":{"node":1,"path":"translation"}},{"sampler":7,"target":{"node":1,"path":"rotation"}},{"sampler":8,"target":{"node":1,"path":"scale"}},{"sampler":9,"target":{"node":0,"path":"translation"}},{"sampler":10,"target":{"node":0,"path":"rotation"}},{"sampler":11,"target":{"node":0,"path":"scale"}},{"sampler":12,"target":{"node":2,"path":"translation"}},{"sampler":13,"target":{"node":2,"path":"rotation"}},{"sampler":14,"target":{"node":2,"path":"scale"}},{"sampler":15,"target":{"node":3,"path":"translation"}},{"sampler":16,"target":{"node":3,"path":"rotation"}},{"sampler":17,"target":{"node":3,"path":"scale"}},{"sampler":18,"target":{"node":5,"path":"translation"}},{"sampler":19,"target":{"node":5,"path":"rotation"}},{"sampler":20,"target":{"node":5,"path":"scale"}},{"sampler":21,"target":{"node":6,"path":"translation"}},{"sampler":22,"target":{"node":6,"path":"rotation"}},{"sampler":23,"target":{"node":6,"path":"scale"}},{"sampler":24,"target":{"node":7,"path":"translation"}},{"sampler":25,"target":{"node":7,"path":"rotation"}},{"sampler":26,"target":{"node":7,"path":"scale"}}],"name":"yurume","samplers":[{"input":189,"interpolation":"LINEAR","output":190},{"input":189,"interpolation":"LINEAR","output":191},{"input":189,"interpolation":"LINEAR","output":192},{"input":189,"interpolation":"LINEAR","output":193},{"input":189,"interpolation":"LINEAR","output":194},{"input":189,"interpolation":"LINEAR","output":192},{"input":189,"interpolation":"LINEAR","output":195},{"input":189,"interpolation":"LINEAR","output":196},{"input":189,"interpolation":"LINEAR","output":192},{"input":189,"interpolation":"LINEAR","output":197},{"input":189,"interpolation":"LINEAR","output":198},{"input":189,"interpolation":"LINEAR","output":192},{"input":189,"interpolation":"LINEAR","output":199},{"input":189,"interpolation":"LINEAR","output":200},{"input":189,"interpolation":"LINEAR","output":201},{"input":189,"interpolation":"LINEAR","output":202},{"input":189,"interpolation":"LINEAR","output":203},{"input":189,"interpolation":"LINEAR","output":204},{"input":189,"interpolation":"LINEAR","output":205},{"input":189,"interpolation":"LINEAR","output":206},{"input":189,"interpolation":"LINEAR","output":207},{"input":189,"interpolation":"LINEAR","output":208},{"input":189,"interpolation":"LINEAR","output":209},{"input":189,"interpolation":"LINEAR","output":210},{"input":189,"interpolation":"LINEAR","output":211},{"input":189,"interpolation":"LINEAR","output":212},{"input":189,"interpolation":"LINEAR","output":213}]}],"materials":[{"doubleSided":true,"name":"boss_malzeme","pbrMetallicRoughness":{"baseColorTexture":{"index":0},"metallicFactor":0,"roughnessFactor":0.8500000238418579}}],"meshes":[{"name":"boss","primitives":[{"attributes":{"POSITION":0,"NORMAL":1,"TEXCOORD_0":2,"JOINTS_0":3,"WEIGHTS_0":4},"indices":5,"material":0}]}],"textures":[{"sampler":0,"source":0}],"images":[{"mimeType":"image/png","name":"atlas","uri":"atlas.png"}],"skins":[{"inverseBindMatrices":6,"joints":[8,4,1,0,2,3,5,6,7],"name":"iskelet"}],"accessors":[{"bufferView":0,"componentType":5126,"count":364,"max":[1.190000057220459,2.4335391521453857,1.2304226160049438],"min":[-1.190000057220459,0.05000000074505806,-1.0099999904632568],"type":"VEC3"},{"bufferView":1,"componentType":5126,"count":364,"type":"VEC3"},{"bufferView":2,"componentType":5126,"count":364,"type":"VEC2"},{"bufferView":3,"componentType":5121,"count":364,"type":"VEC4"},{"bufferView":4,"componentType":5126,"count":364,"type":"VEC4"},{"bufferView":5,"componentType":5123,"count":474,"type":"SCALAR"},{"bufferView":6,"componentType":5126,"count":9,"type":"MAT4"},{"bufferView":7,"componentType":5126,"count":28,"max":[0.9333333333333333],"min":[0.03333333333333333],"type":"SCALAR"},{"bufferView":8,"componentType":5126,"count":28,"type":"VEC3"},{"bufferView":9,"componentType":5126,"count":28,"type":"VEC4"},{"bufferView":10,"componentType":5126,"count":28,"type":"VEC3"},{"bufferView":11,"componentType":5126,"count":28,"type":"VEC3"},{"bufferView":12,"componentType":5126,"count":28,"type":"VEC4"},{"bufferView":13,"componentType":5126,"count":28,"type":"VEC3"},{"bufferView":14,"componentType":5126,"count":28,"type":"VEC3"},{"bufferView":15,"componentType":5126,"count":28,"type":"VEC4"},{"bufferView":16,"componentType":5126,"count":28,"type":"VEC3"},{"bufferView":17,"componentType":5126,"count":28,"type":"VEC3"},{"bufferView":18,"componentType":5126,"count":28,"type":"VEC4"},{"bufferView":19,"componentType":5126,"count":28,"type":"VEC3"},{"bufferView":20,"componentType":5126,"count":28,"type":"VEC3"},{"bufferView":21,"componentType":5126,"count":28,"type":"VEC4"},{"bufferView":22,"componentType":5126,"count":28,"type":"VEC3"},{"bufferView":23,"componentType":5126,"count":28,"type":"VEC3"},{"bufferView":24,"componentType":5126,"count":28,"type":"VEC4"},{"bufferView":25,"componentType":5126,"count":28,"type":"VEC3"},{"bufferView":26,"componentType":5126,"count":28,"type":"VEC4"},{"bufferView":27,"componentType":5126,"count":28,"type":"VEC3"},{"bufferView":28,"componentType":5126,"count":28,"type":"VEC3"},{"bufferView":29,"componentType":5126,"count":28,"type":"VEC4"},{"bufferView":30,"componentType":5126,"count":28,"type":"VEC3"},{"bufferView":31,"componentType":5126,"count":28,"type":"VEC4"},{"bufferView":32,"componentType":5126,"count":28,"type":"VEC3"},{"bufferView":33,"componentType":5126,"count":67,"max":[2.2333333333333334],"min":[0.03333333333333333],"type":"SCALAR"},{"bufferView":34,"componentType":5126,"count":67,"type":"VEC3"},{"bufferView":35,"componentType":5126,"count":67,"type":"VEC4"},{"bufferView":36,"componentType":5126,"count":67,"type":"VEC3"},{"bufferView":37,"componentType":5126,"count":67,"type":"VEC3"},{"bufferView":38,"componentType":5126,"count":67,"type":"VEC4"},{"bufferView":39,"componentType":5126,"count":67,"type":"VEC3"},{"bufferView":40,"componentType":5126,"count":67,"type":"VEC3"},{"bufferView":41,"componentType":5126,"count":67,"type":"VEC4"},{"bufferView":42,"componentType":5126,"count":67,"type":"VEC3"},{"bufferView":43,"componentType":5126,"count":67,"type":"VEC3"},{"bufferView":44,"componentType":5126,"count":67,"type":"VEC4"},{"bufferView":45,"componentType":5126,"count":67,"type":"VEC3"},{"bufferView":46,"componentType":5126,"count":67,"type":"VEC3"},{"bufferView":47,"componentType":5126,"count":67,"type":"VEC4"},{"bufferView":48,"componentType":5126,"count":67,"type":"VEC3"},{"bufferView":49,"componentType":5126,"count":67,"type":"VEC3"},{"bufferView":50,"componentType":5126,"count":67,"type":"VEC4"},{"bufferView":51,"componentType":5126,"count":67,"type":"VEC3"},{"bufferView":52,"componentType":5126,"count":67,"type":"VEC4"},{"bufferView":53,"componentType":5126,"count":67,"type":"VEC3"},{"bufferView":54,"componentType":5126,"count":67,"type":"VEC3"},{"bufferView":55,"componentType":5126,"count":67,"type":"VEC4"},{"bufferView":56,"componentType":5126,"count":67,"type":"VEC3"},{"bufferView":57,"componentType":5126,"count":67,"type":"VEC4"},{"bufferView":58,"componentType":5126,"count":67,"type":"VEC3"},{"bufferView":59,"componentType":5126,"count":34,"max":[1.1333333333333333],"min":[0.03333333333333333],"type":"SCALAR"},{"bufferView":60,"componentType":5126,"count":34,"type":"VEC3"},{"bufferView":61,"componentType":5126,"count":34,"type":"VEC4"},{"bufferView":62,"componentType":5126,"count":34,"type":"VEC3"},{"bufferView":63,"componentType":5126,"count":34,"type":"VEC3"},{"bufferView":64,"componentType":5126,"count":34,"type":"VEC4"},{"bufferView":65,"componentType":5126,"count":34,"type":"VEC3"},{"bufferView":66,"componentType":5126,"count":34,"type":"VEC3"},{"bufferView":67,"componentType":5126,"count":34,"type":"VEC4"},{"bufferView":68,"componentType":5126,"count":34,"type":"VEC3"},{"bufferView":69,"componentType":5126,"count":34,"type":"VEC3"},{"bufferView":70,"componentType":5126,"count":34,"type":"VEC4"},{"bufferView":71,"componentType":5126,"count":34,"type":"VEC3"},{"bufferView":72,"componentType":5126,"count":34,"type":"VEC3"},{"bufferView":73,"componentType":5126,"count":34,"type":"VEC4"},{"bufferView":74,"componentType":5126,"count":34,"type":"VEC3"},{"bufferView":75,"componentType":5126,"count":34,"type":"VEC3"},{"bufferView":76,"componentType":5126,"count":34,"type":"VEC4"},{"bufferView":77,"componentType":5126,"count":34,"type":"VEC3"},{"bufferView":78,"componentType":5126,"count":34,"type":"VEC4"},{"bufferView":79,"componentType":5126,"count":34,"type":"VEC3"},{"bufferView":80,"componentType":5126,"count":34,"type":"VEC3"},{"bufferView":81,"componentType":5126,"count":34,"type":"VEC4"},{"bufferView":82,"componentType":5126,"count":34,"type":"VEC3"},{"bufferView":83,"componentType":5126,"count":34,"type":"VEC4"},{"bufferView":84,"componentType":5126,"count":34,"type":"VEC3"},{"bufferView":85,"componentType":5126,"count":34,"type":"VEC3"},{"bufferView":86,"componentType":5126,"count":34,"type":"VEC4"},{"bufferView":87,"componentType":5126,"count":34,"type":"VEC3"},{"bufferView":88,"componentType":5126,"count":34,"type":"VEC3"},{"bufferView":89,"componentType":5126,"count":34,"type":"VEC4"},{"bufferView":90,"componentType":5126,"count":34,"type":"VEC3"},{"bufferView":91,"componentType":5126,"count":34,"type":"VEC3"},{"bufferView":92,"componentType":5126,"count":34,"type":"VEC4"},{"bufferView":93,"componentType":5126,"count":34,"type":"VEC3"},{"bufferView":94,"componentType":5126,"count":34,"type":"VEC3"},{"bufferView":95,"componentType":5126,"count":34,"type":"VEC4"},{"bufferView":96,"componentType":5126,"count":34,"type":"VEC3"},{"bufferView":97,"componentType":5126,"count":34,"type":"VEC3"},{"bufferView":98,"componentType":5126,"count":34,"type":"VEC4"},{"bufferView":99,"componentType":5126,"count":34,"type":"VEC3"},{"bufferView":100,"componentType":5126,"count":34,"type":"VEC3"},{"bufferView":101,"componentType":5126,"count":34,"type":"VEC4"},{"bufferView":102,"componentType":5126,"count":34,"type":"VEC3"},{"bufferView":103,"componentType":5126,"count":34,"type":"VEC4"},{"bufferView":104,"componentType":5126,"count":34,"type":"VEC3"},{"bufferView":105,"componentType":5126,"count":34,"type":"VEC3"},{"bufferView":106,"componentType":5126,"count":34,"type":"VEC4"},{"bufferView":107,"componentType":5126,"count":34,"type":"VEC3"},{"bufferView":108,"componentType":5126,"count":34,"type":"VEC4"},{"bufferView":109,"componentType":5126,"count":34,"type":"VEC3"},{"bufferView":110,"componentType":5126,"count":14,"max":[0.4666666666666667],"min":[0.03333333333333333],"type":"SCALAR"},{"bufferView":111,"componentType":5126,"count":14,"type":"VEC3"},{"bufferView":112,"componentType":5126,"count":14,"type":"VEC4"},{"bufferView":113,"componentType":5126,"count":14,"type":"VEC3"},{"bufferView":114,"componentType":5126,"count":14,"type":"VEC3"},{"bufferView":115,"componentType":5126,"count":14,"type":"VEC4"},{"bufferView":116,"componentType":5126,"count":14,"type":"VEC3"},{"bufferView":117,"componentType":5126,"count":14,"type":"VEC3"},{"bufferView":118,"componentType":5126,"count":14,"type":"VEC4"},{"bufferView":119,"componentType":5126,"count":14,"type":"VEC3"},{"bufferView":120,"componentType":5126,"count":14,"type":"VEC3"},{"bufferView":121,"componentType":5126,"count":14,"type":"VEC4"},{"bufferView":122,"componentType":5126,"count":14,"type":"VEC3"},{"bufferView":123,"componentType":5126,"count":14,"type":"VEC3"},{"bufferView":124,"componentType":5126,"count":14,"type":"VEC4"},{"bufferView":125,"componentType":5126,"count":14,"type":"VEC3"},{"bufferView":126,"componentType":5126,"count":14,"type":"VEC3"},{"bufferView":127,"componentType":5126,"count":14,"type":"VEC4"},{"bufferView":128,"componentType":5126,"count":14,"type":"VEC3"},{"bufferView":129,"componentType":5126,"count":14,"type":"VEC4"},{"bufferView":130,"componentType":5126,"count":14,"type":"VEC3"},{"bufferView":131,"componentType":5126,"count":14,"type":"VEC3"},{"bufferView":132,"componentType":5126,"count":14,"type":"VEC4"},{"bufferView":133,"componentType":5126,"count":14,"type":"VEC3"},{"bufferView":134,"componentType":5126,"count":14,"type":"VEC4"},{"bufferView":135,"componentType":5126,"count":14,"type":"VEC3"},{"bufferView":136,"componentType":5126,"count":37,"max":[1.2333333333333334],"min":[0.03333333333333333],"type":"SCALAR"},{"bufferView":137,"componentType":5126,"count":37,"type":"VEC3"},{"bufferView":138,"componentType":5126,"count":37,"type":"VEC4"},{"bufferView":139,"componentType":5126,"count":37,"type":"VEC3"},{"bufferView":140,"componentType":5126,"count":37,"type":"VEC3"},{"bufferView":141,"componentType":5126,"count":37,"type":"VEC4"},{"bufferView":142,"componentType":5126,"count":37,"type":"VEC3"},{"bufferView":143,"componentType":5126,"count":37,"type":"VEC3"},{"bufferView":144,"componentType":5126,"count":37,"type":"VEC4"},{"bufferView":145,"componentType":5126,"count":37,"type":"VEC3"},{"bufferView":146,"componentType":5126,"count":37,"type":"VEC3"},{"bufferView":147,"componentType":5126,"count":37,"type":"VEC4"},{"bufferView":148,"componentType":5126,"count":37,"type":"VEC3"},{"bufferView":149,"componentType":5126,"count":37,"type":"VEC3"},{"bufferView":150,"componentType":5126,"count":37,"type":"VEC4"},{"bufferView":151,"componentType":5126,"count":37,"type":"VEC3"},{"bufferView":152,"componentType":5126,"count":37,"type":"VEC3"},{"bufferView":153,"componentType":5126,"count":37,"type":"VEC4"},{"bufferView":154,"componentType":5126,"count":37,"type":"VEC3"},{"bufferView":155,"componentType":5126,"count":37,"type":"VEC4"},{"bufferView":156,"componentType":5126,"count":37,"type":"VEC3"},{"bufferView":157,"componentType":5126,"count":37,"type":"VEC3"},{"bufferView":158,"componentType":5126,"count":37,"type":"VEC4"},{"bufferView":159,"componentType":5126,"count":37,"type":"VEC3"},{"bufferView":160,"componentType":5126,"count":37,"type":"VEC3"},{"bufferView":161,"componentType":5126,"count":37,"type":"VEC4"},{"bufferView":162,"componentType":5126,"count":37,"type":"VEC3"},{"bufferView":163,"componentType":5126,"count":43,"max":[1.4333333333333333],"min":[0.03333333333333333],"type":"SCALAR"},{"bufferView":164,"componentType":5126,"count":43,"type":"VEC3"},{"bufferView":165,"componentType":5126,"count":43,"type":"VEC4"},{"bufferView":166,"componentType":5126,"count":43,"type":"VEC3"},{"bufferView":167,"componentType":5126,"count":43,"type":"VEC3"},{"bufferView":168,"componentType":5126,"count":43,"type":"VEC4"},{"bufferView":169,"componentType":5126,"count":43,"type":"VEC3"},{"bufferView":170,"componentType":5126,"count":43,"type":"VEC3"},{"bufferView":171,"componentType":5126,"count":43,"type":"VEC4"},{"bufferView":172,"componentType":5126,"count":43,"type":"VEC3"},{"bufferView":173,"componentType":5126,"count":43,"type":"VEC3"},{"bufferView":174,"componentType":5126,"count":43,"type":"VEC4"},{"bufferView":175,"componentType":5126,"count":43,"type":"VEC3"},{"bufferView":176,"componentType":5126,"count":43,"type":"VEC3"},{"bufferView":177,"componentType":5126,"count":43,"type":"VEC4"},{"bufferView":178,"componentType":5126,"count":43,"type":"VEC3"},{"bufferView":179,"componentType":5126,"count":43,"type":"VEC3"},{"bufferView":180,"componentType":5126,"count":43,"type":"VEC4"},{"bufferView":181,"componentType":5126,"count":43,"type":"VEC3"},{"bufferView":182,"componentType":5126,"count":43,"type":"VEC4"},{"bufferView":183,"componentType":5126,"count":43,"type":"VEC3"},{"bufferView":184,"componentType":5126,"count":43,"type":"VEC3"},{"bufferView":185,"componentType":5126,"count":43,"type":"VEC4"},{"bufferView":186,"componentType":5126,"count":43,"type":"VEC3"},{"bufferView":187,"componentType":5126,"count":43,"type":"VEC4"},{"bufferView":188,"componentType":5126,"count":43,"type":"VEC3"},{"bufferView":189,"componentType":5126,"count":36,"max":[1.2],"min":[0.03333333333333333],"type":"SCALAR"},{"bufferView":190,"componentType":5126,"count":36,"type":"VEC3"},{"bufferView":191,"componentType":5126,"count":36,"type":"VEC4"},{"bufferView":192,"componentType":5126,"count":36,"type":"VEC3"},{"bufferView":193,"componentType":5126,"count":36,"type":"VEC3"},{"bufferView":194,"componentType":5126,"count":36,"type":"VEC4"},{"bufferView":195,"componentType":5126,"count":36,"type":"VEC3"},{"bufferView":196,"componentType":5126,"count":36,"type":"VEC4"},{"bufferView":197,"componentType":5126,"count":36,"type":"VEC3"},{"bufferView":198,"componentType":5126,"count":36,"type":"VEC4"},{"bufferView":199,"componentType":5126,"count":36,"type":"VEC3"},{"bufferView":200,"componentType":5126,"count":36,"type":"VEC4"},{"bufferView":201,"componentType":5126,"count":36,"type":"VEC3"},{"bufferView":202,"componentType":5126,"count":36,"type":"VEC3"},{"bufferView":203,"componentType":5126,"count":36,"type":"VEC4"},{"bufferView":204,"componentType":5126,"count":36,"type":"VEC3"},{"bufferView":205,"componentType":5126,"count":36,"type":"VEC3"},{"bufferView":206,"componentType":5126,"count":36,"type":"VEC4"},{"bufferView":207,"componentType":5126,"count":36,"type":"VEC3"},{"bufferView":208,"componentType":5126,"count":36,"type":"VEC3"},{"bufferView":209,"componentType":5126,"count":36,"type":"VEC4"},{"bufferView":210,"componentType":5126,"count":36,"type":"VEC3"},{"bufferView":211,"componentType":5126,"count":36,"type":"VEC3"},{"bufferView":212,"componentType":5126,"count":36,"type":"VEC4"},{"bufferView":213,"componentType":5126,"count":36,"type":"VEC3"}],"bufferViews":[{"buffer":0,"byteLength":4368,"byteOffset":0,"target":34962},{"buffer":0,"byteLength":4368,"byteOffset":4368,"target":34962},{"buffer":0,"byteLength":2912,"byteOffset":8736,"target":34962},{"buffer":0,"byteLength":1456,"byteOffset":11648,"target":34962},{"buffer":0,"byteLength":5824,"byteOffset":13104,"target":34962},{"buffer":0,"byteLength":948,"byteOffset":18928,"target":34963},{"buffer":0,"byteLength":576,"byteOffset":19876},{"buffer":0,"byteLength":112,"byteOffset":20452},{"buffer":0,"byteLength":336,"byteOffset":20564},{"buffer":0,"byteLength":448,"byteOffset":20900},{"buffer":0,"byteLength":336,"byteOffset":21348},{"buffer":0,"byteLength":336,"byteOffset":21684},{"buffer":0,"byteLength":448,"byteOffset":22020},{"buffer":0,"byteLength":336,"byteOffset":22468},{"buffer":0,"byteLength":336,"byteOffset":22804},{"buffer":0,"byteLength":448,"byteOffset":23140},{"buffer":0,"byteLength":336,"byteOffset":23588},{"buffer":0,"byteLength":336,"byteOffset":23924},{"buffer":0,"byteLength":448,"byteOffset":24260},{"buffer":0,"byteLength":336,"byteOffset":24708},{"buffer":0,"byteLength":336,"byteOffset":25044},{"buffer":0,"byteLength":448,"byteOffset":25380},{"buffer":0,"byteLength":336,"byteOffset":25828},{"buffer":0,"byteLength":336,"byteOffset":26164},{"buffer":0,"byteLength":448,"byteOffset":26500},{"buffer":0,"byteLength":336,"byteOffset":26948},{"buffer":0,"byteLength":448,"byteOffset":27284},{"buffer":0,"byteLength":336,"byteOffset":27732},{"buffer":0,"byteLength":336,"byteOffset":28068},{"buffer":0,"byteLength":448,"byteOffset":28404},{"buffer":0,"byteLength":336,"byteOffset":28852},{"buffer":0,"byteLength":448,"byteOffset":29188},{"buffer":0,"byteLength":336,"byteOffset":29636},{"buffer":0,"byteLength":268,"byteOffset":29972},{"buffer":0,"byteLength":804,"byteOffset":30240},{"buffer":0,"byteLength":1072,"byteOffset":31044},{"buffer":0,"byteLength":804,"byteOffset":32116},{"buffer":0,"byteLength":804,"byteOffset":32920},{"buffer":0,"byteLength":1072,"byteOffset":33724},{"buffer":0,"byteLength":804,"byteOffset":34796},{"buffer":0,"byteLength":804,"byteOffset":35600},{"buffer":0,"byteLength":1072,"byteOffset":36404},{"buffer":0,"byteLength":804,"byteOffset":37476},{"buffer":0,"byteLength":804,"byteOffset":38280},{"buffer":0,"byteLength":1072,"byteOffset":39084},{"buffer":0,"byteLength":804,"byteOffset":40156},{"buffer":0,"byteLength":804,"byteOffset":40960},{"buffer":0,"byteLength":1072,"byteOffset":41764},{"buffer":0,"byteLength":804,"byteOffset":42836},{"buffer":0,"byteLength":804,"byteOffset":43640},{"buffer":0,"byteLength":1072,"byteOffset":44444},{"buffer":0,"byteLength":804,"byteOffset":45516},{"buffer":0,"byteLength":1072,"byteOffset":46320},{"buffer":0,"byteLength":804,"byteOffset":47392},{"buffer":0,"byteLength":804,"byteOffset":48196},{"buffer":0,"byteLength":1072,"byteOffset":49000},{"buffer":0,"byteLength":804,"byteOffset":50072},{"buffer":0,"byteLength":1072,"byteOffset":50876},{"buffer":0,"byteLength":804,"byteOffset":51948},{"buffer":0,"byteLength":136,"byteOffset":52752},{"buffer":0,"byteLength":408,"byteOffset":52888},{"buffer":0,"byteLength":544,"byteOffset":53296},{"buffer":0,"byteLength":408,"byteOffset":53840},{"buffer":0,"byteLength":408,"byteOffset":54248},{"buffer":0,"byteLength":544,"byteOffset":54656},{"buffer":0,"byteLength":408,"byteOffset":55200},{"buffer":0,"byteLength":408,"byteOffset":55608},{"buffer":0,"byteLength":544,"byteOffset":56016},{"buffer":0,"byteLength":408,"byteOffset":56560},{"buffer":0,"byteLength":408,"byteOffset":56968},{"buffer":0,"byteLength":544,"byteOffset":57376},{"buffer":0,"byteLength":408,"byteOffset":57920},{"buffer":0,"byteLength":408,"byteOffset":58328},{"buffer":0,"byteLength":544,"byteOffset":58736},{"buffer":0,"byteLength":408,"byteOffset":59280},{"buffer":0,"byteLength":408,"byteOffset":59688},{"buffer":0,"byteLength":544,"byteOffset":60096},{"buffer":0,"byteLength":408,"byteOffset":60640},{"buffer":0,"byteLength":544,"byteOffset":61048},{"buffer":0,"byteLength":408,"byteOffset":61592},{"buffer":0,"byteLength":408,"byteOffset":62000},{"buffer":0,"byteLength":544,"byteOffset":62408},{"buffer":0,"byteLength":408,"byteOffset":62952},{"buffer":0,"byteLength":544,"byteOffset":63360},{"buffer":0,"byteLength":408,"byteOffset":63904},{"buffer":0,"byteLength":408,"byteOffset":64312},{"buffer":0,"byteLength":544,"byteOffset":64720},{"buffer":0,"byteLength":408,"byteOffset":65264},{"buffer":0,"byteLength":408,"byteOffset":65672},{"buffer":0,"byteLength":544,"byteOffset":66080},{"buffer":0,"byteLength":408,"byteOffset":66624},{"buffer":0,"byteLength":408,"byteOffset":67032},{"buffer":0,"byteLength":544,"byteOffset":67440},{"buffer":0,"byteLength":408,"byteOffset":67984},{"buffer":0,"byteLength":408,"byteOffset":68392},{"buffer":0,"byteLength":544,"byteOffset":68800},{"buffer":0,"byteLength":408,"byteOffset":69344},{"buffer":0,"byteLength":408,"byteOffset":69752},{"buffer":0,"byteLength":544,"byteOffset":70160},{"buffer":0,"byteLength":408,"byteOffset":70704},{"buffer":0,"byteLength":408,"byteOffset":71112},{"buffer":0,"byteLength":544,"byteOffset":71520},{"buffer":0,"byteLength":408,"byteOffset":72064},{"buffer":0,"byteLength":544,"byteOffset":72472},{"buffer":0,"byteLength":408,"byteOffset":73016},{"buffer":0,"byteLength":408,"byteOffset":73424},{"buffer":0,"byteLength":544,"byteOffset":73832},{"buffer":0,"byteLength":408,"byteOffset":74376},{"buffer":0,"byteLength":544,"byteOffset":74784},{"buffer":0,"byteLength":408,"byteOffset":75328},{"buffer":0,"byteLength":56,"byteOffset":75736},{"buffer":0,"byteLength":168,"byteOffset":75792},{"buffer":0,"byteLength":224,"byteOffset":75960},{"buffer":0,"byteLength":168,"byteOffset":76184},{"buffer":0,"byteLength":168,"byteOffset":76352},{"buffer":0,"byteLength":224,"byteOffset":76520},{"buffer":0,"byteLength":168,"byteOffset":76744},{"buffer":0,"byteLength":168,"byteOffset":76912},{"buffer":0,"byteLength":224,"byteOffset":77080},{"buffer":0,"byteLength":168,"byteOffset":77304},{"buffer":0,"byteLength":168,"byteOffset":77472},{"buffer":0,"byteLength":224,"byteOffset":77640},{"buffer":0,"byteLength":168,"byteOffset":77864},{"buffer":0,"byteLength":168,"byteOffset":78032},{"buffer":0,"byteLength":224,"byteOffset":78200},{"buffer":0,"byteLength":168,"byteOffset":78424},{"buffer":0,"byteLength":168,"byteOffset":78592},{"buffer":0,"byteLength":224,"byteOffset":78760},{"buffer":0,"byteLength":168,"byteOffset":78984},{"buffer":0,"byteLength":224,"byteOffset":79152},{"buffer":0,"byteLength":168,"byteOffset":79376},{"buffer":0,"byteLength":168,"byteOffset":79544},{"buffer":0,"byteLength":224,"byteOffset":79712},{"buffer":0,"byteLength":168,"byteOffset":79936},{"buffer":0,"byteLength":224,"byteOffset":80104},{"buffer":0,"byteLength":168,"byteOffset":80328},{"buffer":0,"byteLength":148,"byteOffset":80496},{"buffer":0,"byteLength":444,"byteOffset":80644},{"buffer":0,"byteLength":592,"byteOffset":81088},{"buffer":0,"byteLength":444,"byteOffset":81680},{"buffer":0,"byteLength":444,"byteOffset":82124},{"buffer":0,"byteLength":592,"byteOffset":82568},{"buffer":0,"byteLength":444,"byteOffset":83160},{"buffer":0,"byteLength":444,"byteOffset":83604},{"buffer":0,"byteLength":592,"byteOffset":84048},{"buffer":0,"byteLength":444,"byteOffset":84640},{"buffer":0,"byteLength":444,"byteOffset":85084},{"buffer":0,"byteLength":592,"byteOffset":85528},{"buffer":0,"byteLength":444,"byteOffset":86120},{"buffer":0,"byteLength":444,"byteOffset":86564},{"buffer":0,"byteLength":592,"byteOffset":87008},{"buffer":0,"byteLength":444,"byteOffset":87600},{"buffer":0,"byteLength":444,"byteOffset":88044},{"buffer":0,"byteLength":592,"byteOffset":88488},{"buffer":0,"byteLength":444,"byteOffset":89080},{"buffer":0,"byteLength":592,"byteOffset":89524},{"buffer":0,"byteLength":444,"byteOffset":90116},{"buffer":0,"byteLength":444,"byteOffset":90560},{"buffer":0,"byteLength":592,"byteOffset":91004},{"buffer":0,"byteLength":444,"byteOffset":91596},{"buffer":0,"byteLength":444,"byteOffset":92040},{"buffer":0,"byteLength":592,"byteOffset":92484},{"buffer":0,"byteLength":444,"byteOffset":93076},{"buffer":0,"byteLength":172,"byteOffset":93520},{"buffer":0,"byteLength":516,"byteOffset":93692},{"buffer":0,"byteLength":688,"byteOffset":94208},{"buffer":0,"byteLength":516,"byteOffset":94896},{"buffer":0,"byteLength":516,"byteOffset":95412},{"buffer":0,"byteLength":688,"byteOffset":95928},{"buffer":0,"byteLength":516,"byteOffset":96616},{"buffer":0,"byteLength":516,"byteOffset":97132},{"buffer":0,"byteLength":688,"byteOffset":97648},{"buffer":0,"byteLength":516,"byteOffset":98336},{"buffer":0,"byteLength":516,"byteOffset":98852},{"buffer":0,"byteLength":688,"byteOffset":99368},{"buffer":0,"byteLength":516,"byteOffset":100056},{"buffer":0,"byteLength":516,"byteOffset":100572},{"buffer":0,"byteLength":688,"byteOffset":101088},{"buffer":0,"byteLength":516,"byteOffset":101776},{"buffer":0,"byteLength":516,"byteOffset":102292},{"buffer":0,"byteLength":688,"byteOffset":102808},{"buffer":0,"byteLength":516,"byteOffset":103496},{"buffer":0,"byteLength":688,"byteOffset":104012},{"buffer":0,"byteLength":516,"byteOffset":104700},{"buffer":0,"byteLength":516,"byteOffset":105216},{"buffer":0,"byteLength":688,"byteOffset":105732},{"buffer":0,"byteLength":516,"byteOffset":106420},{"buffer":0,"byteLength":688,"byteOffset":106936},{"buffer":0,"byteLength":516,"byteOffset":107624},{"buffer":0,"byteLength":144,"byteOffset":108140},{"buffer":0,"byteLength":432,"byteOffset":108284},{"buffer":0,"byteLength":576,"byteOffset":108716},{"buffer":0,"byteLength":432,"byteOffset":109292},{"buffer":0,"byteLength":432,"byteOffset":109724},{"buffer":0,"byteLength":576,"byteOffset":110156},{"buffer":0,"byteLength":432,"byteOffset":110732},{"buffer":0,"byteLength":576,"byteOffset":111164},{"buffer":0,"byteLength":432,"byteOffset":111740},{"buffer":0,"byteLength":576,"byteOffset":112172},{"buffer":0,"byteLength":432,"byteOffset":112748},{"buffer":0,"byteLength":576,"byteOffset":113180},{"buffer":0,"byteLength":432,"byteOffset":113756},{"buffer":0,"byteLength":432,"byteOffset":114188},{"buffer":0,"byteLength":576,"byteOffset":114620},{"buffer":0,"byteLength":432,"byteOffset":115196},{"buffer":0,"byteLength":432,"byteOffset":115628},{"buffer":0,"byteLength":576,"byteOffset":116060},{"buffer":0,"byteLength":432,"byteOffset":116636},{"buffer":0,"byteLength":432,"byteOffset":117068},{"buffer":0,"byteLength":576,"byteOffset":117500},{"buffer":0,"byteLength":432,"byteOffset":118076},{"buffer":0,"byteLength":432,"byteOffset":118508},{"buffer":0,"byteLength":576,"byteOffset":118940},{"buffer":0,"byteLength":432,"byteOffset":119516}],"samplers":[{"magFilter":9728,"minFilter":9984}],"buffers":[{"byteLength":119948,"uri":"boss.bin"}]}