{
	"asset":{
		"generator":"Khronos glTF Blender I/O v5.0.21",
		"version":"2.0"
	},
	"scene":0,
	"scenes":[
		{
			"name":"Scene",
			"nodes":[
				7
			]
		}
	],
	"nodes":[
		{
			"name":"Govde",
			"translation":[
				0,
				0.1599999964237213,
				0
			]
		},
		{
			"name":"Cene",
			"rotation":[
				-0.7695090770721436,
				0,
				0,
				0.6386358737945557
			],
			"scale":[
				1,
				0.9999999403953552,
				0.9999998807907104
			],
			"translation":[
				0,
				0.07999998331069946,
				-0.14000000059604645
			]
		},
		{
			"name":"BacakSol",
			"rotation":[
				-0.9961389303207397,
				0.06201724335551262,
				0.06201737001538277,
				0.003861062228679657
			],
			"scale":[
				0.9999957084655762,
				0.9999998807907104,
				0.9999999403953552
			],
			"translation":[
				-0.1899999976158142,
				0,
				0
			]
		},
		{
			"name":"BacakSag",
			"rotation":[
				-0.9961389303207397,
				-0.06201724335551262,
				-0.06201737001538277,
				0.003861062228679657
			],
			"scale":[
				0.9999957084655762,
				0.9999998807907104,
				0.9999999403953552
			],
			"translation":[
				0.1899999976158142,
				0,
				0
			]
		},
		{
			"name":"Kuyruk",
			"rotation":[
				0.5127866268157959,
				0,
				0,
				0.8585160970687866
			],
			"translation":[
				0,
				0.13999998569488525,
				0.23999999463558197
			]
		},
		{
			"children":[
				0,
				1,
				2,
				3,
				4
			],
			"name":"Kok",
			"translation":[
				0,
				0.30000001192092896,
				0
			]
		},
		{
			"mesh":0,
			"name":"dusman",
			"skin":0
		},
		{
			"children":[
				6,
				5
			],
			"name":"iskelet"
		}
	],
	"animations":[
		{
			"channels":[
				{
					"sampler":0,
					"target":{
						"node":5,
						"path":"translation"
					}
				},
				{
					"sampler":1,
					"target":{
						"node":5,
						"path":"rotation"
					}
				},
				{
					"sampler":2,
					"target":{
						"node":5,
						"path":"scale"
					}
				},
				{
					"sampler":3,
					"target":{
						"node":0,
						"path":"translation"
					}
				},
				{
					"sampler":4,
					"target":{
						"node":0,
						"path":"rotation"
					}
				},
				{
					"sampler":5,
					"target":{
						"node":0,
						"path":"scale"
					}
				},
				{
					"sampler":6,
					"target":{
						"node":1,
						"path":"translation"
					}
				},
				{
					"sampler":7,
					"target":{
						"node":1,
						"path":"rotation"
					}
				},
				{
					"sampler":8,
					"target":{
						"node":1,
						"path":"scale"
					}
				},
				{
					"sampler":9,
					"target":{
						"node":2,
						"path":"translation"
					}
				},
				{
					"sampler":10,
					"target":{
						"node":2,
						"path":"rotation"
					}
				},
				{
					"sampler":11,
					"target":{
						"node":2,
						"path":"scale"
					}
				},
				{
					"sampler":12,
					"target":{
						"node":3,
						"path":"translation"
					}
				},
				{
					"sampler":13,
					"target":{
						"node":3,
						"path":"rotation"
					}
				},
				{
					"sampler":14,
					"target":{
						"node":3,
						"path":"scale"
					}
				},
				{
					"sampler":15,
					"target":{
						"node":4,
						"path":"translation"
					}
				},
				{
					"sampler":16,
					"target":{
						"node":4,
						"path":"rotation"
					}
				},
				{
					"sampler":17,
					"target":{
						"node":4,
						"path":"scale"
					}
				}
			],
			"name":"bosta",
			"samplers":[
				{
					"input":7,
					"interpolation":"LINEAR",
					"output":8
				},
				{
					"input":7,
					"interpolation":"LINEAR",
					"output":9
				},
				{
					"input":7,
					"interpolation":"LINEAR",
					"output":10
				},
				{
					"input":7,
					"interpolation":"LINEAR",
					"output":11
				},
				{
					"input":7,
					"interpolation":"LINEAR",
					"output":12
				},
				{
					"input":7,
					"interpolation":"LINEAR",
					"output":13
				},
				{
					"input":7,
					"interpolation":"LINEAR",
					"output":14
				},
				{
					"input":7,
					"interpolation":"LINEAR",
					"output":15
				},
				{
					"input":7,
					"interpolation":"LINEAR",
					"output":16
				},
				{
					"input":7,
					"interpolation":"LINEAR",
					"output":17
				},
				{
					"input":7,
					"interpolation":"LINEAR",
					"output":18
				},
				{
					"input":7,
					"interpolation":"LINEAR",
					"output":19
				},
				{
					"input":7,
					"interpolation":"LINEAR",
					"output":20
				},
				{
					"input":7,
					"interpolation":"LINEAR",
					"output":21
				},
				{
					"input":7,
					"interpolation":"LINEAR",
					"output":19
				},
				{
					"input":7,
					"interpolation":"LINEAR",
					"output":22
				},
				{
					"input":7,
					"interpolation":"LINEAR",
					"output":23
				},
				{
					"input":7,
					"interpolation":"LINEAR",
					"output":24
				}
			]
		},
		{
			"channels":[
				{
					"sampler":0,
					"target":{
						"node":5,
						"path":"translation"
					}
				},
				{
					"sampler":1,
					"target":{
						"node":5,
						"path":"rotation"
					}
				},
				{
					"sampler":2,
					"target":{
						"node":5,
						"path":"scale"
					}
				},
				{
					"sampler":3,
					"target":{
						"node":0,
						"path":"translation"
					}
				},
				{
					"sampler":4,
					"target":{
						"node":0,
						"path":"rotation"
					}
				},
				{
					"sampler":5,
					"target":{
						"node":0,
						"path":"scale"
					}
				},
				{
					"sampler":6,
					"target":{
						"node":1,
						"path":"translation"
					}
				},
				{
					"sampler":7,
					"target":{
						"node":1,
						"path":"rotation"
					}
				},
				{
					"sampler":8,
					"target":{
						"node":1,
						"path":"scale"
					}
				},
				{
					"sampler":9,
					"target":{
						"node":2,
						"path":"translation"
					}
				},
				{
					"sampler":10,
					"target":{
						"node":2,
						"path":"rotation"
					}
				},
				{
					"sampler":11,
					"target":{
						"node":2,
						"path":"scale"
					}
				},
				{
					"sampler":12,
					"target":{
						"node":3,
						"path":"translation"
					}
				},
				{
					"sampler":13,
					"target":{
						"node":3,
						"path":"rotation"
					}
				},
				{
					"sampler":14,
					"target":{
						"node":3,
						"path":"scale"
					}
				},
				{
					"sampler":15,
					"target":{
						"node":4,
						"path":"translation"
					}
				},
				{
					"sampler":16,
					"target":{
						"node":4,
						"path":"rotation"
					}
				},
				{
					"sampler":17,
					"target":{
						"node":4,
						"path":"scale"
					}
				}
			],
			"name":"ezildi",
			"samplers":[
				{
					"input":25,
					"interpolation":"LINEAR",
					"output":26
				},
				{
					"input":25,
					"interpolation":"LINEAR",
					"output":27
				},
				{
					"input":25,
					"interpolation":"LINEAR",
					"output":28
				},
				{
					"input":25,
					"interpolation":"LINEAR",
					"output":29
				},
				{
					"input":25,
					"interpolation":"LINEAR",
					"output":30
				},
				{
					"input":25,
					"interpolation":"LINEAR",
					"output":31
				},
				{
					"input":25,
					"interpolation":"LINEAR",
					"output":32
				},
				{
					"input":25,
					"interpolation":"LINEAR",
					"output":33
				},
				{
					"input":25,
					"interpolation":"LINEAR",
					"output":34
				},
				{
					"input":25,
					"interpolation":"LINEAR",
					"output":35
				},
				{
					"input":25,
					"interpolation":"LINEAR",
					"output":36
				},
				{
					"input":25,
					"interpolation":"LINEAR",
					"output":37
				},
				{
					"input":25,
					"interpolation":"LINEAR",
					"output":38
				},
				{
					"input":25,
					"interpolation":"LINEAR",
					"output":39
				},
				{
					"input":25,
					"interpolation":"LINEAR",
					"output":37
				},
				{
					"input":25,
					"interpolation":"LINEAR",
					"output":40
				},
				{
					"input":25,
					"interpolation":"LINEAR",
					"output":41
				},
				{
					"input":25,
					"interpolation":"LINEAR",
					"output":42
				}
			]
		},
		{
			"channels":[
				{
					"sampler":0,
					"target":{
						"node":5,
						"path":"translation"
					}
				},
				{
					"sampler":1,
					"target":{
						"node":5,
						"path":"rotation"
					}
				},
				{
					"sampler":2,
					"target":{
						"node":5,
						"path":"scale"
					}
				},
				{
					"sampler":3,
					"target":{
						"node":0,
						"path":"translation"
					}
				},
				{
					"sampler":4,
					"target":{
						"node":0,
						"path":"rotation"
					}
				},
				{
					"sampler":5,
					"target":{
						"node":0,
						"path":"scale"
					}
				},
				{
					"sampler":6,
					"target":{
						"node":1,
						"path":"translation"
					}
				},
				{
					"sampler":7,
					"target":{
						"node":1,
						"path":"rotation"
					}
				},
				{
					"sampler":8,
					"target":{
						"node":1,
						"path":"scale"
					}
				},
				{
					"sampler":9,
					"target":{
						"node":2,
						"path":"translation"
					}
				},
				{
					"sampler":10,
					"target":{
						"node":2,
						"path":"rotation"
					}
				},
				{
					"sampler":11,
					"target":{
						"node":2,
						"path":"scale"
					}
				},
				{
					"sampler":12,
					"target":{
						"node":3,
						"path":"translation"
					}
				},
				{
					"sampler":13,
					"target":{
						"node":3,
						"path":"rotation"
					}
				},
				{
					"sampler":14,
					"target":{
						"node":3,
						"path":"scale"
					}
				},
				{
					"sampler":15,
					"target":{
						"node":4,
						"path":"translation"
					}
				},
				{
					"sampler":16,
					"target":{
						"node":4,
						"path":"rotation"
					}
				},
				{
					"sampler":17,
					"target":{
						"node":4,
						"path":"scale"
					}
				}
			],
			"name":"farketti",
			"samplers":[
				{
					"input":43,
					"interpolation":"LINEAR",
					"output":44
				},
				{
					"input":43,
					"interpolation":"LINEAR",
					"output":45
				},
				{
					"input":43,
					"interpolation":"LINEAR",
					"output":46
				},
				{
					"input":43,
					"interpolation":"LINEAR",
					"output":47
				},
				{
					"input":43,
					"interpolation":"LINEAR",
					"output":48
				},
				{
					"input":43,
					"interpolation":"LINEAR",
					"output":49
				},
				{
					"input":43,
					"interpolation":"LINEAR",
					"output":50
				},
				{
					"input":43,
					"interpolation":"LINEAR",
					"output":51
				},
				{
					"input":43,
					"interpolation":"LINEAR",
					"output":52
				},
				{
					"input":43,
					"interpolation":"LINEAR",
					"output":53
				},
				{
					"input":43,
					"interpolation":"LINEAR",
					"output":54
				},
				{
					"input":43,
					"interpolation":"LINEAR",
					"output":55
				},
				{
					"input":43,
					"interpolation":"LINEAR",
					"output":56
				},
				{
					"input":43,
					"interpolation":"LINEAR",
					"output":57
				},
				{
					"input":43,
					"interpolation":"LINEAR",
					"output":58
				},
				{
					"input":43,
					"interpolation":"LINEAR",
					"output":59
				},
				{
					"input":43,
					"interpolation":"LINEAR",
					"output":60
				},
				{
					"input":43,
					"interpolation":"LINEAR",
					"output":61
				}
			]
		},
		{
			"channels":[
				{
					"sampler":0,
					"target":{
						"node":5,
						"path":"translation"
					}
				},
				{
					"sampler":1,
					"target":{
						"node":5,
						"path":"rotation"
					}
				},
				{
					"sampler":2,
					"target":{
						"node":5,
						"path":"scale"
					}
				},
				{
					"sampler":3,
					"target":{
						"node":0,
						"path":"translation"
					}
				},
				{
					"sampler":4,
					"target":{
						"node":0,
						"path":"rotation"
					}
				},
				{
					"sampler":5,
					"target":{
						"node":0,
						"path":"scale"
					}
				},
				{
					"sampler":6,
					"target":{
						"node":1,
						"path":"translation"
					}
				},
				{
					"sampler":7,
					"target":{
						"node":1,
						"path":"rotation"
					}
				},
				{
					"sampler":8,
					"target":{
						"node":1,
						"path":"scale"
					}
				},
				{
					"sampler":9,
					"target":{
						"node":2,
						"path":"translation"
					}
				},
				{
					"sampler":10,
					"target":{
						"node":2,
						"path":"rotation"
					}
				},
				{
					"sampler":11,
					"target":{
						"node":2,
						"path":"scale"
					}
				},
				{
					"sampler":12,
					"target":{
						"node":3,
						"path":"translation"
					}
				},
				{
					"sampler":13,
					"target":{
						"node":3,
						"path":"rotation"
					}
				},
				{
					"sampler":14,
					"target":{
						"node":3,
						"path":"scale"
					}
				},
				{
					"sampler":15,
					"target":{
						"node":4,
						"path":"translation"
					}
				},
				{
					"sampler":16,
					"target":{
						"node":4,
						"path":"rotation"
					}
				},
				{
					"sampler":17,
					"target":{
						"node":4,
						"path":"scale"
					}
				}
			],
			"name":"kosma",
			"samplers":[
				{
					"input":62,
					"interpolation":"LINEAR",
					"output":63
				},
				{
					"input":62,
					"interpolation":"LINEAR",
					"output":64
				},
				{
					"input":62,
					"interpolation":"LINEAR",
					"output":65
				},
				{
					"input":62,
					"interpolation":"LINEAR",
					"output":66
				},
				{
					"input":62,
					"interpolation":"LINEAR",
					"output":67
				},
				{
					"input":62,
					"interpolation":"LINEAR",
					"output":65
				},
				{
					"input":62,
					"interpolation":"LINEAR",
					"output":68
				},
				{
					"input":62,
					"interpolation":"LINEAR",
					"output":69
				},
				{
					"input":62,
					"interpolation":"LINEAR",
					"output":70
				},
				{
					"input":62,
					"interpolation":"LINEAR",
					"output":71
				},
				{
					"input":62,
					"interpolation":"LINEAR",
					"output":72
				},
				{
					"input":62,
					"interpolation":"LINEAR",
					"output":73
				},
				{
					"input":62,
					"interpolation":"LINEAR",
					"output":74
				},
				{
					"input":62,
					"interpolation":"LINEAR",
					"output":75
				},
				{
					"input":62,
					"interpolation":"LINEAR",
					"output":76
				},
				{
					"input":62,
					"interpolation":"LINEAR",
					"output":77
				},
				{
					"input":62,
					"interpolation":"LINEAR",
					"output":78
				},
				{
					"input":62,
					"interpolation":"LINEAR",
					"output":79
				}
			]
		},
		{
			"channels":[
				{
					"sampler":0,
					"target":{
						"node":5,
						"path":"translation"
					}
				},
				{
					"sampler":1,
					"target":{
						"node":5,
						"path":"rotation"
					}
				},
				{
					"sampler":2,
					"target":{
						"node":5,
						"path":"scale"
					}
				},
				{
					"sampler":3,
					"target":{
						"node":0,
						"path":"translation"
					}
				},
				{
					"sampler":4,
					"target":{
						"node":0,
						"path":"rotation"
					}
				},
				{
					"sampler":5,
					"target":{
						"node":0,
						"path":"scale"
					}
				},
				{
					"sampler":6,
					"target":{
						"node":1,
						"path":"translation"
					}
				},
				{
					"sampler":7,
					"target":{
						"node":1,
						"path":"rotation"
					}
				},
				{
					"sampler":8,
					"target":{
						"node":1,
						"path":"scale"
					}
				},
				{
					"sampler":9,
					"target":{
						"node":2,
						"path":"translation"
					}
				},
				{
					"sampler":10,
					"target":{
						"node":2,
						"path":"rotation"
					}
				},
				{
					"sampler":11,
					"target":{
						"node":2,
						"path":"scale"
					}
				},
				{
					"sampler":12,
					"target":{
						"node":3,
						"path":"translation"
					}
				},
				{
					"sampler":13,
					"target":{
						"node":3,
						"path":"rotation"
					}
				},
				{
					"sampler":14,
					"target":{
						"node":3,
						"path":"scale"
					}
				},
				{
					"sampler":15,
					"target":{
						"node":4,
						"path":"translation"
					}
				},
				{
					"sampler":16,
					"target":{
						"node":4,
						"path":"rotation"
					}
				},
				{
					"sampler":17,
					"target":{
						"node":4,
						"path":"scale"
					}
				}
			],
			"name":"saldiri",
			"samplers":[
				{
					"input":80,
					"interpolation":"LINEAR",
					"output":81
				},
				{
					"input":80,
					"interpolation":"LINEAR",
					"output":82
				},
				{
					"input":80,
					"interpolation":"LINEAR",
					"output":83
				},
				{
					"input":80,
					"interpolation":"LINEAR",
					"output":84
				},
				{
					"input":80,
					"interpolation":"LINEAR",
					"output":85
				},
				{
					"input":80,
					"interpolation":"LINEAR",
					"output":86
				},
				{
					"input":80,
					"interpolation":"LINEAR",
					"output":87
				},
				{
					"input":80,
					"interpolation":"LINEAR",
					"output":88
				},
				{
					"input":80,
					"interpolation":"LINEAR",
					"output":89
				},
				{
					"input":80,
					"interpolation":"LINEAR",
					"output":90
				},
				{
					"input":80,
					"interpolation":"LINEAR",
					"output":91
				},
				{
					"input":80,
					"interpolation":"LINEAR",
					"output":92
				},
				{
					"input":80,
					"interpolation":"LINEAR",
					"output":93
				},
				{
					"input":80,
					"interpolation":"LINEAR",
					"output":94
				},
				{
					"input":80,
					"interpolation":"LINEAR",
					"output":95
				},
				{
					"input":80,
					"interpolation":"LINEAR",
					"output":96
				},
				{
					"input":80,
					"interpolation":"LINEAR",
					"output":97
				},
				{
					"input":80,
					"interpolation":"LINEAR",
					"output":98
				}
			]
		},
		{
			"channels":[
				{
					"sampler":0,
					"target":{
						"node":5,
						"path":"translation"
					}
				},
				{
					"sampler":1,
					"target":{
						"node":5,
						"path":"rotation"
					}
				},
				{
					"sampler":2,
					"target":{
						"node":5,
						"path":"scale"
					}
				},
				{
					"sampler":3,
					"target":{
						"node":0,
						"path":"translation"
					}
				},
				{
					"sampler":4,
					"target":{
						"node":0,
						"path":"rotation"
					}
				},
				{
					"sampler":5,
					"target":{
						"node":0,
						"path":"scale"
					}
				},
				{
					"sampler":6,
					"target":{
						"node":1,
						"path":"translation"
					}
				},
				{
					"sampler":7,
					"target":{
						"node":1,
						"path":"rotation"
					}
				},
				{
					"sampler":8,
					"target":{
						"node":1,
						"path":"scale"
					}
				},
				{
					"sampler":9,
					"target":{
						"node":2,
						"path":"translation"
					}
				},
				{
					"sampler":10,
					"target":{
						"node":2,
						"path":"rotation"
					}
				},
				{
					"sampler":11,
					"target":{
						"node":2,
						"path":"scale"
					}
				},
				{
					"sampler":12,
					"target":{
						"node":3,
						"path":"translation"
					}
				},
				{
					"sampler":13,
					"target":{
						"node":3,
						"path":"rotation"
					}
				},
				{
					"sampler":14,
					"target":{
						"node":3,
						"path":"scale"
					}
				},
				{
					"sampler":15,
					"target":{
						"node":4,
						"path":"translation"
					}
				},
				{
					"sampler":16,
					"target":{
						"node":4,
						"path":"rotation"
					}
				},
				{
					"sampler":17,
					"target":{
						"node":4,
						"path":"scale"
					}
				}
			],
			"name":"yurume",
			"samplers":[
				{
					"input":99,
					"interpolation":"LINEAR",
					"output":100
				},
				{
					"input":99,
					"interpolation":"LINEAR",
					"output":101
				},
				{
					"input":99,
					"interpolation":"LINEAR",
					"output":102
				},
				{
					"input":99,
					"interpolation":"LINEAR",
					"output":103
				},
				{
					"input":99,
					"interpolation":"LINEAR",
					"output":104
				},
				{
					"input":99,
					"interpolation":"LINEAR",
					"output":102
				},
				{
					"input":99,
					"interpolation":"LINEAR",
					"output":105
				},
				{
					"input":99,
					"interpolation":"LINEAR",
					"output":106
				},
				{
					"input":99,
					"interpolation":"LINEAR",
					"output":107
				},
				{
					"input":99,
					"interpolation":"LINEAR",
					"output":108
				},
				{
					"input":99,
					"interpolation":"LINEAR",
					"output":109
				},
				{
					"input":99,
					"interpolation":"LINEAR",
					"output":110
				},
				{
					"input":99,
					"interpolation":"LINEAR",
					"output":111
				},
				{
					"input":99,
					"interpolation":"LINEAR",
					"output":112
				},
				{
					"input":99,
					"interpolation":"LINEAR",
					"output":113
				},
				{
					"input":99,
					"interpolation":"LINEAR",
					"output":114
				},
				{
					"input":99,
					"interpolation":"LINEAR",
					"output":115
				},
				{
					"input":99,
					"interpolation":"LINEAR",
					"output":116
				}
			]
		},
		{
			"channels":[
				{
					"sampler":0,
					"target":{
						"node":5,
						"path":"translation"
					}
				},
				{
					"sampler":1,
					"target":{
						"node":5,
						"path":"rotation"
					}
				},
				{
					"sampler":2,
					"target":{
						"node":5,
						"path":"scale"
					}
				},
				{
					"sampler":3,
					"target":{
						"node":0,
						"path":"translation"
					}
				},
				{
					"sampler":4,
					"target":{
						"node":0,
						"path":"rotation"
					}
				},
				{
					"sampler":5,
					"target":{
						"node":0,
						"path":"scale"
					}
				},
				{
					"sampler":6,
					"target":{
						"node":1,
						"path":"translation"
					}
				},
				{
					"sampler":7,
					"target":{
						"node":1,
						"path":"rotation"
					}
				},
				{
					"sampler":8,
					"target":{
						"node":1,
						"path":"scale"
					}
				},
				{
					"sampler":9,
					"target":{
						"node":2,
						"path":"translation"
					}
				},
				{
					"sampler":10,
					"target":{
						"node":2,
						"path":"rotation"
					}
				},
				{
					"sampler":11,
					"target":{
						"node":2,
						"path":"scale"
					}
				},
				{
					"sampler":12,
					"target":{
						"node":3,
						"path":"translation"
					}
				},
				{
					"sampler":13,
					"target":{
						"node":3,
						"path":"rotation"
					}
				},
				{
					"sampler":14,
					"target":{
						"node":3,
						"path":"scale"
					}
				},
				{
					"sampler":15,
					"target":{
						"node":4,
						"path":"translation"
					}
				},
				{
					"sampler":16,
					"target":{
						"node":4,
						"path":"rotation"
					}
				},
				{
					"sampler":17,
					"target":{
						"node":4,
						"path":"scale"
					}
				}
			],
			"name":"zipla",
			"samplers":[
				{
					"input":117,
					"interpolation":"LINEAR",
					"output":118
				},
				{
					"input":117,
					"interpolation":"LINEAR",
					"output":119
				},
				{
					"input":117,
					"interpolation":"LINEAR",
					"output":120
				},
				{
					"input":117,
					"interpolation":"LINEAR",
					"output":121
				},
				{
					"input":117,
					"interpolation":"LINEAR",
					"output":122
				},
				{
					"input":117,
					"interpolation":"LINEAR",
					"output":123
				},
				{
					"input":117,
					"interpolation":"LINEAR",
					"output":124
				},
				{
					"input":117,
					"interpolation":"LINEAR",
					"output":125
				},
				{
					"input":117,
					"interpolation":"LINEAR",
					"output":126
				},
				{
					"input":117,
					"interpolation":"LINEAR",
					"output":127
				},
				{
					"input":117,
					"interpolation":"LINEAR",
					"output":128
				},
				{
					"input":117,
					"interpolation":"LINEAR",
					"output":129
				},
				{
					"input":117,
					"interpolation":"LINEAR",
					"output":130
				},
				{
					"input":117,
					"interpolation":"LINEAR",
					"output":131
				},
				{
					"input":117,
					"interpolation":"LINEAR",
					"output":129
				},
				{
					"input":117,
					"interpolation":"LINEAR",
					"output":132
				},
				{
					"input":117,
					"interpolation":"LINEAR",
					"output":133
				},
				{
					"input":117,
					"interpolation":"LINEAR",
					"output":134
				}
			]
		}
	],
	"materials":[
		{
			"doubleSided":true,
			"name":"dusman_malzeme",
			"pbrMetallicRoughness":{
				"baseColorTexture":{
					"index":0
				},
				"metallicFactor":0,
				"roughnessFactor":0.8500000238418579
			}
		}
	],
	"meshes":[
		{
			"name":"dusman",
			"primitives":[
				{
					"attributes":{
						"POSITION":0,
						"NORMAL":1,
						"TEXCOORD_0":2,
						"JOINTS_0":3,
						"WEIGHTS_0":4
					},
					"indices":5,
					"material":0
				}
			]
		}
	],
	"textures":[
		{
			"sampler":0,
			"source":0
		}
	],
	"images":[
		{
			"mimeType":"image/png",
			"name":"atlas",
			"uri":"atlas.png"
		}
	],
	"skins":[
		{
			"inverseBindMatrices":6,
			"joints":[
				5,
				0,
				1,
				2,
				3,
				4
			],
			"name":"iskelet"
		}
	],
	"accessors":[
		{
			"bufferView":0,
			"componentType":5126,
			"count":324,
			"max":[
				0.5499999523162842,
				1.1100000143051147,
				0.5230810642242432
			],
			"min":[
				-0.5499999523162842,
				0.019999999552965164,
				-0.5230810642242432
			],
			"type":"VEC3"
		},
		{
			"bufferView":1,
			"componentType":5126,
			"count":324,
			"type":"VEC3"
		},
		{
			"bufferView":2,
			"componentType":5126,
			"count":324,
			"type":"VEC2"
		},
		{
			"bufferView":3,
			"componentType":5121,
			"count":324,
			"type":"VEC4"
		},
		{
			"bufferView":4,
			"componentType":5126,
			"count":324,
			"type":"VEC4"
		},
		{
			"bufferView":5,
			"componentType":5123,
			"count":384,
			"type":"SCALAR"
		},
		{
			"bufferView":6,
			"componentType":5126,
			"count":6,
			"type":"MAT4"
		},
		{
			"bufferView":7,
			"componentType":5126,
			"count":55,
			"max":[
				1.8333333333333333
			],
			"min":[
				0.03333333333333333
			],
			"type":"SCALAR"
		},
		{
			"bufferView":8,
			"componentType":5126,
			"count":55,
			"type":"VEC3"
		},
		{
			"bufferView":9,
			"componentType":5126,
			"count":55,
			"type":"VEC4"
		},
		{
			"bufferView":10,
			"componentType":5126,
			"count":55,
			"type":"VEC3"
		},
		{
			"bufferView":11,
			"componentType":5126,
			"count":55,
			"type":"VEC3"
		},
		{
			"bufferView":12,
			"componentType":5126,
			"count":55,
			"type":"VEC4"
		},
		{
			"bufferView":13,
			"componentType":5126,
			"count":55,
			"type":"VEC3"
		},
		{
			"bufferView":14,
			"componentType":5126,
			"count":55,
			"type":"VEC3"
		},
		{
			"bufferView":15,
			"componentType":5126,
			"count":55,
			"type":"VEC4"
		},
		{
			"bufferView":16,
			"componentType":5126,
			"count":55,
			"type":"VEC3"
		},
		{
			"bufferView":17,
			"componentType":5126,
			"count":55,
			"type":"VEC3"
		},
		{
			"bufferView":18,
			"componentType":5126,
			"count":55,
			"type":"VEC4"
		},
		{
			"bufferView":19,
			"componentType":5126,
			"count":55,
			"type":"VEC3"
		},
		{
			"bufferView":20,
			"componentType":5126,
			"count":55,
			"type":"VEC3"
		},
		{
			"bufferView":21,
			"componentType":5126,
			"count":55,
			"type":"VEC4"
		},
		{
			"bufferView":22,
			"componentType":5126,
			"count":55,
			"type":"VEC3"
		},
		{
			"bufferView":23,
			"componentType":5126,
			"count":55,
			"type":"VEC4"
		},
		{
			"bufferView":24,
			"componentType":5126,
			"count":55,
			"type":"VEC3"
		},
		{
			"bufferView":25,
			"componentType":5126,
			"count":11,
			"max":[
				0.36666666666666664
			],
			"min":[
				0.03333333333333333
			],
			"type":"SCALAR"
		},
		{
			"bufferView":26,
			"componentType":5126,
			"count":11,
			"type":"VEC3"
		},
		{
			"bufferView":27,
			"componentType":5126,
			"count":11,
			"type":"VEC4"
		},
		{
			"bufferView":28,
			"componentType":5126,
			"count":11,
			"type":"VEC3"
		},
		{
			"bufferView":29,
			"componentType":5126,
			"count":11,
			"type":"VEC3"
		},
		{
			"bufferView":30,
			"componentType":5126,
			"count":11,
			"type":"VEC4"
		},
		{
			"bufferView":31,
			"componentType":5126,
			"count":11,
			"type":"VEC3"
		},
		{
			"bufferView":32,
			"componentType":5126,
			"count":11,
			"type":"VEC3"
		},
		{
			"bufferView":33,
			"componentType":5126,
			"count":11,
			"type":"VEC4"
		},
		{
			"bufferView":34,
			"componentType":5126,
			"count":11,
			"type":"VEC3"
		},
		{
			"bufferView":35,
			"componentType":5126,
			"count":11,
			"type":"VEC3"
		},
		{
			"bufferView":36,
			"componentType":5126,
			"count":11,
			"type":"VEC4"
		},
		{
			"bufferView":37,
			"componentType":5126,
			"count":11,
			"type":"VEC3"
		},
		{
			"bufferView":38,
			"componentType":5126,
			"count":11,
			"type":"VEC3"
		},
		{
			"bufferView":39,
			"componentType":5126,
			"count":11,
			"type":"VEC4"
		},
		{
			"bufferView":40,
			"componentType":5126,
			"count":11,
			"type":"VEC3"
		},
		{
			"bufferView":41,
			"componentType":5126,
			"count":11,
			"type":"VEC4"
		},
		{
			"bufferView":42,
			"componentType":5126,
			"count":11,
			"type":"VEC3"
		},
		{
			"bufferView":43,
			"componentType":5126,
			"count":14,
			"max":[
				0.4666666666666667
			],
			"min":[
				0.03333333333333333
			],
			"type":"SCALAR"
		},
		{
			"bufferView":44,
			"componentType":5126,
			"count":14,
			"type":"VEC3"
		},
		{
			"bufferView":45,
			"componentType":5126,
			"count":14,
			"type":"VEC4"
		},
		{
			"bufferView":46,
			"componentType":5126,
			"count":14,
			"type":"VEC3"
		},
		{
			"bufferView":47,
			"componentType":5126,
			"count":14,
			"type":"VEC3"
		},
		{
			"bufferView":48,
			"componentType":5126,
			"count":14,
			"type":"VEC4"
		},
		{
			"bufferView":49,
			"componentType":5126,
			"count":14,
			"type":"VEC3"
		},
		{
			"bufferView":50,
			"componentType":5126,
			"count":14,
			"type":"VEC3"
		},
		{
			"bufferView":51,
			"componentType":5126,
			"count":14,
			"type":"VEC4"
		},
		{
			"bufferView":52,
			"componentType":5126,
			"count":14,
			"type":"VEC3"
		},
		{
			"bufferView":53,
			"componentType":5126,
			"count":14,
			"type":"VEC3"
		},
		{
			"bufferView":54,
			"componentType":5126,
			"count":14,
			"type":"VEC4"
		},
		{
			"bufferView":55,
			"componentType":5126,
			"count":14,
			"type":"VEC3"
		},
		{
			"bufferView":56,
			"componentType":5126,
			"count":14,
			"type":"VEC3"
		},
		{
			"bufferView":57,
			"componentType":5126,
			"count":14,
			"type":"VEC4"
		},
		{
			"bufferView":58,
			"componentType":5126,
			"count":14,
			"type":"VEC3"
		},
		{
			"bufferView":59,
			"componentType":5126,
			"count":14,
			"type":"VEC3"
		},
		{
			"bufferView":60,
			"componentType":5126,
			"count":14,
			"type":"VEC4"
		},
		{
			"bufferView":61,
			"componentType":5126,
			"count":14,
			"type":"VEC3"
		},
		{
			"bufferView":62,
			"componentType":5126,
			"count":13,
			"max":[
				0.43333333333333335
			],
			"min":[
				0.03333333333333333
			],
			"type":"SCALAR"
		},
		{
			"bufferView":63,
			"componentType":5126,
			"count":13,
			"type":"VEC3"
		},
		{
			"bufferView":64,
			"componentType":5126,
			"count":13,
			"type":"VEC4"
		},
		{
			"bufferView":65,
			"componentType":5126,
			"count":13,
			"type":"VEC3"
		},
		{
			"bufferView":66,
			"componentType":5126,
			"count":13,
			"type":"VEC3"
		},
		{
			"bufferView":67,
			"componentType":5126,
			"count":13,
			"type":"VEC4"
		},
		{
			"bufferView":68,
			"componentType":5126,
			"count":13,
			"type":"VEC3"
		},
		{
			"bufferView":69,
			"componentType":5126,
			"count":13,
			"type":"VEC4"
		},
		{
			"bufferView":70,
			"componentType":5126,
			"count":13,
			"type":"VEC3"
		},
		{
			"bufferView":71,
			"componentType":5126,
			"count":13,
			"type":"VEC3"
		},
		{
			"bufferView":72,
			"componentType":5126,
			"count":13,
			"type":"VEC4"
		},
		{
			"bufferView":73,
			"componentType":5126,
			"count":13,
			"type":"VEC3"
		},
		{
			"bufferView":74,
			"componentType":5126,
			"count":13,
			"type":"VEC3"
		},
		{
			"bufferView":75,
			"componentType":5126,
			"count":13,
			"type":"VEC4"
		},
		{
			"bufferView":76,
			"componentType":5126,
			"count":13,
			"type":"VEC3"
		},
		{
			"bufferView":77,
			"componentType":5126,
			"count":13,
			"type":"VEC3"
		},
		{
			"bufferView":78,
			"componentType":5126,
			"count":13,
			"type":"VEC4"
		},
		{
			"bufferView":79,
			"componentType":5126,
			"count":13,
			"type":"VEC3"
		},
		{
			"bufferView":80,
			"componentType":5126,
			"count":19,
			"max":[
				0.6333333333333333
			],
			"min":[
				0.03333333333333333
			],
			"type":"SCALAR"
		},
		{
			"bufferView":81,
			"componentType":5126,
			"count":19,
			"type":"VEC3"
		},
		{
			"bufferView":82,
			"componentType":5126,
			"count":19,
			"type":"VEC4"
		},
		{
			"bufferView":83,
			"componentType":5126,
			"count":19,
			"type":"VEC3"
		},
		{
			"bufferView":84,
			"componentType":5126,
			"count":19,
			"type":"VEC3"
		},
		{
			"bufferView":85,
			"componentType":5126,
			"count":19,
			"type":"VEC4"
		},
		{
			"bufferView":86,
			"componentType":5126,
			"count":19,
			"type":"VEC3"
		},
		{
			"bufferView":87,
			"componentType":5126,
			"count":19,
			"type":"VEC3"
		},
		{
			"bufferView":88,
			"componentType":5126,
			"count":19,
			"type":"VEC4"
		},
		{
			"bufferView":89,
			"componentType":5126,
			"count":19,
			"type":"VEC3"
		},
		{
			"bufferView":90,
			"componentType":5126,
			"count":19,
			"type":"VEC3"
		},
		{
			"bufferView":91,
			"componentType":5126,
			"count":19,
			"type":"VEC4"
		},
		{
			"bufferView":92,
			"componentType":5126,
			"count":19,
			"type":"VEC3"
		},
		{
			"bufferView":93,
			"componentType":5126,
			"count":19,
			"type":"VEC3"
		},
		{
			"bufferView":94,
			"componentType":5126,
			"count":19,
			"type":"VEC4"
		},
		{
			"bufferView":95,
			"componentType":5126,
			"count":19,
			"type":"VEC3"
		},
		{
			"bufferView":96,
			"componentType":5126,
			"count":19,
			"type":"VEC3"
		},
		{
			"bufferView":97,
			"componentType":5126,
			"count":19,
			"type":"VEC4"
		},
		{
			"bufferView":98,
			"componentType":5126,
			"count":19,
			"type":"VEC3"
		},
		{
			"bufferView":99,
			"componentType":5126,
			"count":20,
			"max":[
				0.6666666666666666
			],
			"min":[
				0.03333333333333333
			],
			"type":"SCALAR"
		},
		{
			"bufferView":100,
			"componentType":5126,
			"count":20,
			"type":"VEC3"
		},
		{
			"bufferView":101,
			"componentType":5126,
			"count":20,
			"type":"VEC4"
		},
		{
			"bufferView":102,
			"componentType":5126,
			"count":20,
			"type":"VEC3"
		},
		{
			"bufferView":103,
			"componentType":5126,
			"count":20,
			"type":"VEC3"
		},
		{
			"bufferView":104,
			"componentType":5126,
			"count":20,
			"type":"VEC4"
		},
		{
			"bufferView":105,
			"componentType":5126,
			"count":20,
			"type":"VEC3"
		},
		{
			"bufferView":106,
			"componentType":5126,
			"count":20,
			"type":"VEC4"
		},
		{
			"bufferView":107,
			"componentType":5126,
			"count":20,
			"type":"VEC3"
		},
		{
			"bufferView":108,
			"componentType":5126,
			"count":20,
			"type":"VEC3"
		},
		{
			"bufferView":109,
			"componentType":5126,
			"count":20,
			"type":"VEC4"
		},
		{
			"bufferView":110,
			"componentType":5126,
			"count":20,
			"type":"VEC3"
		},
		{
			"bufferView":111,
			"componentType":5126,
			"count":20,
			"type":"VEC3"
		},
		{
			"bufferView":112,
			"componentType":5126,
			"count":20,
			"type":"VEC4"
		},
		{
			"bufferView":113,
			"componentType":5126,
			"count":20,
			"type":"VEC3"
		},
		{
			"bufferView":114,
			"componentType":5126,
			"count":20,
			"type":"VEC3"
		},
		{
			"bufferView":115,
			"componentType":5126,
			"count":20,
			"type":"VEC4"
		},
		{
			"bufferView":116,
			"componentType":5126,
			"count":20,
			"type":"VEC3"
		},
		{
			"bufferView":117,
			"componentType":5126,
			"count":23,
			"max":[
				0.7666666666666667
			],
			"min":[
				0.03333333333333333
			],
			"type":"SCALAR"
		},
		{
			"bufferView":118,
			"componentType":5126,
			"count":23,
			"type":"VEC3"
		},
		{
			"bufferView":119,
			"componentType":5126,
			"count":23,
			"type":"VEC4"
		},
		{
			"bufferView":120,
			"componentType":5126,
			"count":23,
			"type":"VEC3"
		},
		{
			"bufferView":121,
			"componentType":5126,
			"count":23,
			"type":"VEC3"
		},
		{
			"bufferView":122,
			"componentType":5126,
			"count":23,
			"type":"VEC4"
		},
		{
			"bufferView":123,
			"componentType":5126,
			"count":23,
			"type":"VEC3"
		},
		{
			"bufferView":124,
			"componentType":5126,
			"count":23,
			"type":"VEC3"
		},
		{
			"bufferView":125,
			"componentType":5126,
			"count":23,
			"type":"VEC4"
		},
		{
			"bufferView":126,
			"componentType":5126,
			"count":23,
			"type":"VEC3"
		},
		{
			"bufferView":127,
			"componentType":5126,
			"count":23,
			"type":"VEC3"
		},
		{
			"bufferView":128,
			"componentType":5126,
			"count":23,
			"type":"VEC4"
		},
		{
			"bufferView":129,
			"componentType":5126,
			"count":23,
			"type":"VEC3"
		},
		{
			"bufferView":130,
			"componentType":5126,
			"count":23,
			"type":"VEC3"
		},
		{
			"bufferView":131,
			"componentType":5126,
			"count":23,
			"type":"VEC4"
		},
		{
			"bufferView":132,
			"componentType":5126,
			"count":23,
			"type":"VEC3"
		},
		{
			"bufferView":133,
			"componentType":5126,
			"count":23,
			"type":"VEC4"
		},
		{
			"bufferView":134,
			"componentType":5126,
			"count":23,
			"type":"VEC3"
		}
	],
	"bufferViews":[
		{
			"buffer":0,
			"byteLength":3888,
			"byteOffset":0,
			"target":34962
		},
		{
			"buffer":0,
			"byteLength":3888,
			"byteOffset":3888,
			"target":34962
		},
		{
			"buffer":0,
			"byteLength":2592,
			"byteOffset":7776,
			"target":34962
		},
		{
			"buffer":0,
			"byteLength":1296,
			"byteOffset":10368,
			"target":34962
		},
		{
			"buffer":0,
			"byteLength":5184,
			"byteOffset":11664,
			"target":34962
		},
		{
			"buffer":0,
			"byteLength":768,
			"byteOffset":16848,
			"target":34963
		},
		{
			"buffer":0,
			"byteLength":384,
			"byteOffset":17616
		},
		{
			"buffer":0,
			"byteLength":220,
			"byteOffset":18000
		},
		{
			"buffer":0,
			"byteLength":660,
			"byteOffset":18220
		},
		{
			"buffer":0,
			"byteLength":880,
			"byteOffset":18880
		},
		{
			"buffer":0,
			"byteLength":660,
			"byteOffset":19760
		},
		{
			"buffer":0,
			"byteLength":660,
			"byteOffset":20420
		},
		{
			"buffer":0,
			"byteLength":880,
			"byteOffset":21080
		},
		{
			"buffer":0,
			"byteLength":660,
			"byteOffset":21960
		},
		{
			"buffer":0,
			"byteLength":660,
			"byteOffset":22620
		},
		{
			"buffer":0,
			"byteLength":880,
			"byteOffset":23280
		},
		{
			"buffer":0,
			"byteLength":660,
			"byteOffset":24160
		},
		{
			"buffer":0,
			"byteLength":660,
			"byteOffset":24820
		},
		{
			"buffer":0,
			"byteLength":880,
			"byteOffset":25480
		},
		{
			"buffer":0,
			"byteLength":660,
			"byteOffset":26360
		},
		{
			"buffer":0,
			"byteLength":660,
			"byteOffset":27020
		},
		{
			"buffer":0,
			"byteLength":880,
			"byteOffset":27680
		},
		{
			"buffer":0,
			"byteLength":660,
			"byteOffset":28560
		},
		{
			"buffer":0,
			"byteLength":880,
			"byteOffset":29220
		},
		{
			"buffer":0,
			"byteLength":660,
			"byteOffset":30100
		},
		{
			"buffer":0,
			"byteLength":44,
			"byteOffset":30760
		},
		{
			"buffer":0,
			"byteLength":132,
			"byteOffset":30804
		},
		{
			"buffer":0,
			"byteLength":176,
			"byteOffset":30936
		},
		{
			"buffer":0,
			"byteLength":132,
			"byteOffset":31112
		},
		{
			"buffer":0,
			"byteLength":132,
			"byteOffset":31244
		},
		{
			"buffer":0,
			"byteLength":176,
			"byteOffset":31376
		},
		{
			"buffer":0,
			"byteLength":132,
			"byteOffset":31552
		},
		{
			"buffer":0,
			"byteLength":132,
			"byteOffset":31684
		},
		{
			"buffer":0,
			"byteLength":176,
			"byteOffset":31816
		},
		{
			"buffer":0,
			"byteLength":132,
			"byteOffset":31992
		},
		{
			"buffer":0,
			"byteLength":132,
			"byteOffset":32124
		},
		{
			"buffer":0,
			"byteLength":176,
			"byteOffset":32256
		},
		{
			"buffer":0,
			"byteLength":132,
			"byteOffset":32432
		},
		{
			"buffer":0,
			"byteLength":132,
			"byteOffset":32564
		},
		{
			"buffer":0,
			"byteLength":176,
			"byteOffset":32696
		},
		{
			"buffer":0,
			"byteLength":132,
			"byteOffset":32872
		},
		{
			"buffer":0,
			"byteLength":176,
			"byteOffset":33004
		},
		{
			"buffer":0,
			"byteLength":132,
			"byteOffset":33180
		},
		{
			"buffer":0,
			"byteLength":56,
			"byteOffset":33312
		},
		{
			"buffer":0,
			"byteLength":168,
			"byteOffset":33368
		},
		{
			"buffer":0,
			"byteLength":224,
			"byteOffset":33536
		},
		{
			"buffer":0,
			"byteLength":168,
			"byteOffset":33760
		},
		{
			"buffer":0,
			"byteLength":168,
			"byteOffset":33928
		},
		{
			"buffer":0,
			"byteLength":224,
			"byteOffset":34096
		},
		{
			"buffer":0,
			"byteLength":168,
			"byteOffset":34320
		},
		{
			"buffer":0,
			"byteLength":168,
			"byteOffset":34488
		},
		{
			"buffer":0,
			"byteLength":224,
			"byteOffset":34656
		},
		{
			"buffer":0,
			"byteLength":168,
			"byteOffset":34880
		},
		{
			"buffer":0,
			"byteLength":168,
			"byteOffset":35048
		},
		{
			"buffer":0,
			"byteLength":224,
			"byteOffset":35216
		},
		{
			"buffer":0,
			"byteLength":168,
			"byteOffset":35440
		},
		{
			"buffer":0,
			"byteLength":168,
			"byteOffset":35608
		},
		{
			"buffer":0,
			"byteLength":224,
			"byteOffset":35776
		},
		{
			"buffer":0,
			"byteLength":168,
			"byteOffset":36000
		},
		{
			"buffer":0,
			"byteLength":168,
			"byteOffset":36168
		},
		{
			"buffer":0,
			"byteLength":224,
			"byteOffset":36336
		},
		{
			"buffer":0,
			"byteLength":168,
			"byteOffset":36560
		},
		{
			"buffer":0,
			"byteLength":52,
			"byteOffset":36728
		},
		{
			"buffer":0,
			"byteLength":156,
			"byteOffset":36780
		},
		{
			"buffer":0,
			"byteLength":208,
			"byteOffset":36936
		},
		{
			"buffer":0,
			"byteLength":156,
			"byteOffset":37144
		},
		{
			"buffer":0,
			"byteLength":156,
			"byteOffset":37300
		},
		{
			"buffer":0,
			"byteLength":208,
			"byteOffset":37456
		},
		{
			"buffer":0,
			"byteLength":156,
			"byteOffset":37664
		},
		{
			"buffer":0,
			"byteLength":208,
			"byteOffset":37820
		},
		{
			"buffer":0,
			"byteLength":156,
			"byteOffset":38028
		},
		{
			"buffer":0,
			"byteLength":156,
			"byteOffset":38184
		},
		{
			"buffer":0,
			"byteLength":208,
			"byteOffset":38340
		},
		{
			"buffer":0,
			"byteLength":156,
			"byteOffset":38548
		},
		{
			"buffer":0,
			"byteLength":156,
			"byteOffset":38704
		},
		{
			"buffer":0,
			"byteLength":208,
			"byteOffset":38860
		},
		{
			"buffer":0,
			"byteLength":156,
			"byteOffset":39068
		},
		{
			"buffer":0,
			"byteLength":156,
			"byteOffset":39224
		},
		{
			"buffer":0,
			"byteLength":208,
			"byteOffset":39380
		},
		{
			"buffer":0,
			"byteLength":156,
			"byteOffset":39588
		},
		{
			"buffer":0,
			"byteLength":76,
			"byteOffset":39744
		},
		{
			"buffer":0,
			"byteLength":228,
			"byteOffset":39820
		},
		{
			"buffer":0,
			"byteLength":304,
			"byteOffset":40048
		},
		{
			"buffer":0,
			"byteLength":228,
			"byteOffset":40352
		},
		{
			"buffer":0,
			"byteLength":228,
			"byteOffset":40580
		},
		{
			"buffer":0,
			"byteLength":304,
			"byteOffset":40808
		},
		{
			"buffer":0,
			"byteLength":228,
			"byteOffset":41112
		},
		{
			"buffer":0,
			"byteLength":228,
			"byteOffset":41340
		},
		{
			"buffer":0,
			"byteLength":304,
			"byteOffset":41568
		},
		{
			"buffer":0,
			"byteLength":228,
			"byteOffset":41872
		},
		{
			"buffer":0,
			"byteLength":228,
			"byteOffset":42100
		},
		{
			"buffer":0,
			"byteLength":304,
			"byteOffset":42328
		},
		{
			"buffer":0,
			"byteLength":228,
			"byteOffset":42632
		},
		{
			"buffer":0,
			"byteLength":228,
			"byteOffset":42860
		},
		{
			"buffer":0,
			"byteLength":304,
			"byteOffset":43088
		},
		{
			"buffer":0,
			"byteLength":228,
			"byteOffset":43392
		},
		{
			"buffer":0,
			"byteLength":228,
			"byteOffset":43620
		},
		{
			"buffer":0,
			"byteLength":304,
			"byteOffset":43848
		},
		{
			"buffer":0,
			"byteLength":228,
			"byteOffset":44152
		},
		{
			"buffer":0,
			"byteLength":80,
			"byteOffset":44380
		},
		{
			"buffer":0,
			"byteLength":240,
			"byteOffset":44460
		},
		{
			"buffer":0,
			"byteLength":320,
			"byteOffset":44700
		},
		{
			"buffer":0,
			"byteLength":240,
			"byteOffset":45020
		},
		{
			"buffer":0,
			"byteLength":240,
			"byteOffset":45260
		},
		{
			"buffer":0,
			"byteLength":320,
			"byteOffset":45500
		},
		{
			"buffer":0,
			"byteLength":240,
			"byteOffset":45820
		},
		{
			"buffer":0,
			"byteLength":320,
			"byteOffset":46060
		},
		{
			"buffer":0,
			"byteLength":240,
			"byteOffset":46380
		},
		{
			"buffer":0,
			"byteLength":240,
			"byteOffset":46620
		},
		{
			"buffer":0,
			"byteLength":320,
			"byteOffset":46860
		},
		{
			"buffer":0,
			"byteLength":240,
			"byteOffset":47180
		},
		{
			"buffer":0,
			"byteLength":240,
			"byteOffset":47420
		},
		{
			"buffer":0,
			"byteLength":320,
			"byteOffset":47660
		},
		{
			"buffer":0,
			"byteLength":240,
			"byteOffset":47980
		},
		{
			"buffer":0,
			"byteLength":240,
			"byteOffset":48220
		},
		{
			"buffer":0,
			"byteLength":320,
			"byteOffset":48460
		},
		{
			"buffer":0,
			"byteLength":240,
			"byteOffset":48780
		},
		{
			"buffer":0,
			"byteLength":92,
			"byteOffset":49020
		},
		{
			"buffer":0,
			"byteLength":276,
			"byteOffset":49112
		},
		{
			"buffer":0,
			"byteLength":368,
			"byteOffset":49388
		},
		{
			"buffer":0,
			"byteLength":276,
			"byteOffset":49756
		},
		{
			"buffer":0,
			"byteLength":276,
			"byteOffset":50032
		},
		{
			"buffer":0,
			"byteLength":368,
			"byteOffset":50308
		},
		{
			"buffer":0,
			"byteLength":276,
			"byteOffset":50676
		},
		{
			"buffer":0,
			"byteLength":276,
			"byteOffset":50952
		},
		{
			"buffer":0,
			"byteLength":368,
			"byteOffset":51228
		},
		{
			"buffer":0,
			"byteLength":276,
			"byteOffset":51596
		},
		{
			"buffer":0,
			"byteLength":276,
			"byteOffset":51872
		},
		{
			"buffer":0,
			"byteLength":368,
			"byteOffset":52148
		},
		{
			"buffer":0,
			"byteLength":276,
			"byteOffset":52516
		},
		{
			"buffer":0,
			"byteLength":276,
			"byteOffset":52792
		},
		{
			"buffer":0,
			"byteLength":368,
			"byteOffset":53068
		},
		{
			"buffer":0,
			"byteLength":276,
			"byteOffset":53436
		},
		{
			"buffer":0,
			"byteLength":368,
			"byteOffset":53712
		},
		{
			"buffer":0,
			"byteLength":276,
			"byteOffset":54080
		}
	],
	"samplers":[
		{
			"magFilter":9728,
			"minFilter":9984
		}
	],
	"buffers":[
		{
			"byteLength":54356,
			"uri":"dusman.bin"
		}
	]
}
