{"asset":{"generator":"Khronos glTF Blender I/O v5.0.21","version":"2.0","extras":{"bin_sha1":"8e6445a5714fb35535ba170895a6bf70e78d3704"}},"scene":0,"scenes":[{"name":"Scene","nodes":[12]}],"nodes":[{"name":"Kafa","translation":[0,0.24999994039535522,0]},{"name":"KolSol","rotation":[-0.020317252725362778,0.14108315110206604,0.14108318090438843,0.9796828031539917],"scale":[0.9999998807907104,1,1],"translation":[-0.23999999463558197,0.12000000476837158,0]},{"name":"KolSag","rotation":[-0.020317252725362778,-0.14108315110206604,-0.14108318090438843,0.9796828031539917],"scale":[0.9999998807907104,1,1],"translation":[0.23999999463558197,0.12000000476837158,0]},{"children":[0,1,2],"name":"Govde","translation":[0,0.18000000715255737,0]},{"name":"AyakSol","rotation":[0.5775724649429321,0,0,0.8163394331932068],"scale":[1,0.9999999403953552,1],"translation":[0,0.24000000953674316,0]},{"children":[4],"name":"DizSol","rotation":[0,4.371138828673793e-08,0,1],"translation":[0,0.2800000011920929,0]},{"children":[5],"name":"BacakSol","rotation":[1,0,-4.371138828673793e-08,0],"translation":[-0.12999999523162842,0,0]},{"name":"AyakSag","rotation":[0.5775724649429321,0,0,0.8163394331932068],"scale":[1,0.9999999403953552,1],"translation":[0,0.24000000953674316,0]},{"children":[7],"name":"DizSag","rotation":[0,4.371138828673793e-08,0,1],"translation":[0,0.2800000011920929,0]},{"children":[8],"name":"BacakSag","rotation":[1,0,-4.371138828673793e-08,0],"translation":[0.12999999523162842,0,0]},{"children":[3,6,9],"name":"Kalca","translation":[0,0.6200000047683716,0]},{"mesh":0,"name":"oyuncu","skin":0},{"children":[11,10],"name":"iskelet"}],"animations":[{"channels":[{"sampler":0,"target":{"node":10,"path":"translation"}},{"sampler":1,"target":{"node":10,"path":"rotation"}},{"sampler":2,"target":{"node":10,"path":"scale"}},{"sampler":3,"target":{"node":3,"path":"translation"}},{"sampler":4,"target":{"node":3,"path":"rotation"}},{"sampler":5,"target":{"node":3,"path":"scale"}},{"sampler":6,"target":{"node":0,"path":"translation"}},{"sampler":7,"target":{"node":0,"path":"rotation"}},{"sampler":8,"target":{"node":0,"path":"scale"}},{"sampler":9,"target":{"node":1,"path":"translation"}},{"sampler":10,"target":{"node":1,"path":"rotation"}},{"sampler":11,"target":{"node":1,"path":"scale"}},{"sampler":12,"target":{"node":2,"path":"translation"}},{"sampler":13,"target":{"node":2,"path":"rotation"}},{"sampler":14,"target":{"node":2,"path":"scale"}},{"sampler":15,"target":{"node":6,"path":"translation"}},{"sampler":16,"target":{"node":6,"path":"rotation"}},{"sampler":17,"target":{"node":6,"path":"scale"}},{"sampler":18,"target":{"node":5,"path":"translation"}},{"sampler":19,"target":{"node":5,"path":"rotation"}},{"sampler":20,"target":{"node":5,"path":"scale"}},{"sampler":21,"target":{"node":4,"path":"translation"}},{"sampler":22,"target":{"node":4,"path":"rotation"}},{"sampler":23,"target":{"node":4,"path":"scale"}},{"sampler":24,"target":{"node":9,"path":"translation"}},{"sampler":25,"target":{"node":9,"path":"rotation"}},{"sampler":26,"target":{"node":9,"path":"scale"}},{"sampler":27,"target":{"node":8,"path":"translation"}},{"sampler":28,"target":{"node":8,"path":"rotation"}},{"sampler":29,"target":{"node":8,"path":"scale"}},{"sampler":30,"target":{"node":7,"path":"translation"}},{"sampler":31,"target":{"node":7,"path":"rotation"}},{"sampler":32,"target":{"node":7,"path":"scale"}}],"name":"bosta","samplers":[{"input":7,"interpolation":"LINEAR","output":8},{"input":7,"interpolation":"LINEAR","output":9},{"input":7,"interpolation":"LINEAR","output":10},{"input":7,"interpolation":"LINEAR","output":11},{"input":7,"interpolation":"LINEAR","output":9},{"input":7,"interpolation":"LINEAR","output":10},{"input":7,"interpolation":"LINEAR","output":12},{"input":7,"interpolation":"LINEAR","output":9},{"input":7,"interpolation":"LINEAR","output":10},{"input":7,"interpolation":"LINEAR","output":13},{"input":7,"interpolation":"LINEAR","output":14},{"input":7,"interpolation":"LINEAR","output":15},{"input":7,"interpolation":"LINEAR","output":16},{"input":7,"interpolation":"LINEAR","output":17},{"input":7,"interpolation":"LINEAR","output":18},{"input":7,"interpolation":"LINEAR","output":19},{"input":7,"interpolation":"LINEAR","output":20},{"input":7,"interpolation":"LINEAR","output":10},{"input":7,"interpolation":"LINEAR","output":21},{"input":7,"interpolation":"LINEAR","output":22},{"input":7,"interpolation":"LINEAR","output":10},{"input":7,"interpolation":"LINEAR","output":23},{"input":7,"interpolation":"LINEAR","output":24},{"input":7,"interpolation":"LINEAR","output":25},{"input":7,"interpolation":"LINEAR","output":26},{"input":7,"interpolation":"LINEAR","output":20},{"input":7,"interpolation":"LINEAR","output":10},{"input":7,"interpolation":"LINEAR","output":21},{"input":7,"interpolation":"LINEAR","output":22},{"input":7,"interpolation":"LINEAR","output":10},{"input":7,"interpolation":"LINEAR","output":23},{"input":7,"interpolation":"LINEAR","output":24},{"input":7,"interpolation":"LINEAR","output":25}]},{"channels":[{"sampler":0,"target":{"node":10,"path":"translation"}},{"sampler":1,"target":{"node":10,"path":"rotation"}},{"sampler":2,"target":{"node":10,"path":"scale"}},{"sampler":3,"target":{"node":3,"path":"translation"}},{"sampler":4,"target":{"node":3,"path":"rotation"}},{"sampler":5,"target":{"node":3,"path":"scale"}},{"sampler":6,"target":{"node":0,"path":"translation"}},{"sampler":7,"target":{"node":0,"path":"rotation"}},{"sampler":8,"target":{"node":0,"path":"scale"}},{"sampler":9,"target":{"node":1,"path":"translation"}},{"sampler":10,"target":{"node":1,"path":"rotation"}},{"sampler":11,"target":{"node":1,"path":"scale"}},{"sampler":12,"target":{"node":2,"path":"translation"}},{"sampler":13,"target":{"node":2,"path":"rotation"}},{"sampler":14,"target":{"node":2,"path":"scale"}},{"sampler":15,"target":{"node":6,"path":"translation"}},{"sampler":16,"target":{"node":6,"path":"rotation"}},{"sampler":17,"target":{"node":6,"path":"scale"}},{"sampler":18,"target":{"node":5,"path":"translation"}},{"sampler":19,"target":{"node":5,"path":"rotation"}},{"sampler":20,"target":{"node":5,"path":"scale"}},{"sampler":21,"target":{"node":4,"path":"translation"}},{"sampler":22,"target":{"node":4,"path":"rotation"}},{"sampler":23,"target":{"node":4,"path":"scale"}},{"sampler":24,"target":{"node":9,"path":"translation"}},{"sampler":25,"target":{"node":9,"path":"rotation"}},{"sampler":26,"target":{"node":9,"path":"scale"}},{"sampler":27,"target":{"node":8,"path":"translation"}},{"sampler":28,"target":{"node":8,"path":"rotation"}},{"sampler":29,"target":{"node":8,"path":"scale"}},{"sampler":30,"target":{"node":7,"path":"translation"}},{"sampler":31,"target":{"node":7,"path":"rotation"}},{"sampler":32,"target":{"node":7,"path":"scale"}}],"name":"dusme","samplers":[{"input":27,"interpolation":"LINEAR","output":28},{"input":27,"interpolation":"LINEAR","output":29},{"input":27,"interpolation":"LINEAR","output":30},{"input":27,"interpolation":"LINEAR","output":31},{"input":27,"interpolation":"LINEAR","output":32},{"input":27,"interpolation":"LINEAR","output":30},{"input":27,"interpolation":"LINEAR","output":33},{"input":27,"interpolation":"LINEAR","output":34},{"input":27,"interpolation":"LINEAR","output":35},{"input":27,"interpolation":"LINEAR","output":36},{"input":27,"interpolation":"LINEAR","output":37},{"input":27,"interpolation":"LINEAR","output":38},{"input":27,"interpolation":"LINEAR","output":39},{"input":27,"interpolation":"LINEAR","output":40},{"input":27,"interpolation":"LINEAR","output":38},{"input":27,"interpolation":"LINEAR","output":41},{"input":27,"interpolation":"LINEAR","output":42},{"input":27,"interpolation":"LINEAR","output":43},{"input":27,"interpolation":"LINEAR","output":44},{"input":27,"interpolation":"LINEAR","output":45},{"input":27,"interpolation":"LINEAR","output":46},{"input":27,"interpolation":"LINEAR","output":47},{"input":27,"interpolation":"LINEAR","output":48},{"input":27,"interpolation":"LINEAR","output":49},{"input":27,"interpolation":"LINEAR","output":50},{"input":27,"interpolation":"LINEAR","output":51},{"input":27,"interpolation":"LINEAR","output":52},{"input":27,"interpolation":"LINEAR","output":53},{"input":27,"interpolation":"LINEAR","output":54},{"input":27,"interpolation":"LINEAR","output":55},{"input":27,"interpolation":"LINEAR","output":56},{"input":27,"interpolation":"LINEAR","output":57},{"input":27,"interpolation":"LINEAR","output":58}]},{"channels":[{"sampler":0,"target":{"node":10,"path":"translation"}},{"sampler":1,"target":{"node":10,"path":"rotation"}},{"sampler":2,"target":{"node":10,"path":"scale"}},{"sampler":3,"target":{"node":3,"path":"translation"}},{"sampler":4,"target":{"node":3,"path":"rotation"}},{"sampler":5,"target":{"node":3,"path":"scale"}},{"sampler":6,"target":{"node":0,"path":"translation"}},{"sampler":7,"target":{"node":0,"path":"rotation"}},{"sampler":8,"target":{"node":0,"path":"scale"}},{"sampler":9,"target":{"node":1,"path":"translation"}},{"sampler":10,"target":{"node":1,"path":"rotation"}},{"sampler":11,"target":{"node":1,"path":"scale"}},{"sampler":12,"target":{"node":2,"path":"translation"}},{"sampler":13,"target":{"node":2,"path":"rotation"}},{"sampler":14,"target":{"node":2,"path":"scale"}},{"sampler":15,"target":{"node":6,"path":"translation"}},{"sampler":16,"target":{"node":6,"path":"rotation"}},{"sampler":17,"target":{"node":6,"path":"scale"}},{"sampler":18,"target":{"node":5,"path":"translation"}},{"sampler":19,"target":{"node":5,"path":"rotation"}},{"sampler":20,"target":{"node":5,"path":"scale"}},{"sampler":21,"target":{"node":4,"path":"translation"}},{"sampler":22,"target":{"node":4,"path":"rotation"}},{"sampler":23,"target":{"node":4,"path":"scale"}},{"sampler":24,"target":{"node":9,"path":"translation"}},{"sampler":25,"target":{"node":9,"path":"rotation"}},{"sampler":26,"target":{"node":9,"path":"scale"}},{"sampler":27,"target":{"node":8,"path":"translation"}},{"sampler":28,"target":{"node":8,"path":"rotation"}},{"sampler":29,"target":{"node":8,"path":"scale"}},{"sampler":30,"target":{"node":7,"path":"translation"}},{"sampler":31,"target":{"node":7,"path":"rotation"}},{"sampler":32,"target":{"node":7,"path":"scale"}}],"name":"kosma","samplers":[{"input":59,"interpolation":"LINEAR","output":60},{"input":59,"interpolation":"LINEAR","output":61},{"input":59,"interpolation":"LINEAR","output":62},{"input":59,"interpolation":"LINEAR","output":63},{"input":59,"interpolation":"LINEAR","output":64},{"input":59,"interpolation":"LINEAR","output":65},{"input":59,"interpolation":"LINEAR","output":66},{"input":59,"interpolation":"LINEAR","output":67},{"input":59,"interpolation":"LINEAR","output":62},{"input":59,"interpolation":"LINEAR","output":68},{"input":59,"interpolation":"LINEAR","output":69},{"input":59,"interpolation":"LINEAR","output":70},{"input":59,"interpolation":"LINEAR","output":71},{"input":59,"interpolation":"LINEAR","output":72},{"input":59,"interpolation":"LINEAR","output":73},{"input":59,"interpolation":"LINEAR","output":74},{"input":59,"interpolation":"LINEAR","output":75},{"input":59,"interpolation":"LINEAR","output":76},{"input":59,"interpolation":"LINEAR","output":77},{"input":59,"interpolation":"LINEAR","output":78},{"input":59,"interpolation":"LINEAR","output":79},{"input":59,"interpolation":"LINEAR","output":80},{"input":59,"interpolation":"LINEAR","output":81},{"input":59,"interpolation":"LINEAR","output":82},{"input":59,"interpolation":"LINEAR","output":83},{"input":59,"interpolation":"LINEAR","output":84},{"input":59,"interpolation":"LINEAR","output":76},{"input":59,"interpolation":"LINEAR","output":85},{"input":59,"interpolation":"LINEAR","output":86},{"input":59,"interpolation":"LINEAR","output":87},{"input":59,"interpolation":"LINEAR","output":88},{"input":59,"interpolation":"LINEAR","output":89},{"input":59,"interpolation":"LINEAR","output":90}]},{"channels":[{"sampler":0,"target":{"node":10,"path":"translation"}},{"sampler":1,"target":{"node":10,"path":"rotation"}},{"sampler":2,"target":{"node":10,"path":"scale"}},{"sampler":3,"target":{"node":3,"path":"translation"}},{"sampler":4,"target":{"node":3,"path":"rotation"}},{"sampler":5,"target":{"node":3,"path":"scale"}},{"sampler":6,"target":{"node":0,"path":"translation"}},{"sampler":7,"target":{"node":0,"path":"rotation"}},{"sampler":8,"target":{"node":0,"path":"scale"}},{"sampler":9,"target":{"node":1,"path":"translation"}},{"sampler":10,"target":{"node":1,"path":"rotation"}},{"sampler":11,"target":{"node":1,"path":"scale"}},{"sampler":12,"target":{"node":2,"path":"translation"}},{"sampler":13,"target":{"node":2,"path":"rotation"}},{"sampler":14,"target":{"node":2,"path":"scale"}},{"sampler":15,"target":{"node":6,"path":"translation"}},{"sampler":16,"target":{"node":6,"path":"rotation"}},{"sampler":17,"target":{"node":6,"path":"scale"}},{"sampler":18,"target":{"node":5,"path":"translation"}},{"sampler":19,"target":{"node":5,"path":"rotation"}},{"sampler":20,"target":{"node":5,"path":"scale"}},{"sampler":21,"target":{"node":4,"path":"translation"}},{"sampler":22,"target":{"node":4,"path":"rotation"}},{"sampler":23,"target":{"node":4,"path":"scale"}},{"sampler":24,"target":{"node":9,"path":"translation"}},{"sampler":25,"target":{"node":9,"path":"rotation"}},{"sampler":26,"target":{"node":9,"path":"scale"}},{"sampler":27,"target":{"node":8,"path":"translation"}},{"sampler":28,"target":{"node":8,"path":"rotation"}},{"sampler":29,"target":{"node":8,"path":"scale"}},{"sampler":30,"target":{"node":7,"path":"translation"}},{"sampler":31,"target":{"node":7,"path":"rotation"}},{"sampler":32,"target":{"node":7,"path":"scale"}}],"name":"yurume","samplers":[{"input":91,"interpolation":"LINEAR","output":92},{"input":91,"interpolation":"LINEAR","output":93},{"input":91,"interpolation":"LINEAR","output":94},{"input":91,"interpolation":"LINEAR","output":95},{"input":91,"interpolation":"LINEAR","output":96},{"input":91,"interpolation":"LINEAR","output":94},{"input":91,"interpolation":"LINEAR","output":97},{"input":91,"interpolation":"LINEAR","output":98},{"input":91,"interpolation":"LINEAR","output":94},{"input":91,"interpolation":"LINEAR","output":99},{"input":91,"interpolation":"LINEAR","output":100},{"input":91,"interpolation":"LINEAR","output":101},{"input":91,"interpolation":"LINEAR","output":102},{"input":91,"interpolation":"LINEAR","output":103},{"input":91,"interpolation":"LINEAR","output":104},{"input":91,"interpolation":"LINEAR","output":105},{"input":91,"interpolation":"LINEAR","output":106},{"input":91,"interpolation":"LINEAR","output":107},{"input":91,"interpolation":"LINEAR","output":108},{"input":91,"interpolation":"LINEAR","output":109},{"input":91,"interpolation":"LINEAR","output":110},{"input":91,"interpolation":"LINEAR","output":111},{"input":91,"interpolation":"LINEAR","output":112},{"input":91,"interpolation":"LINEAR","output":113},{"input":91,"interpolation":"LINEAR","output":114},{"input":91,"interpolation":"LINEAR","output":115},{"input":91,"interpolation":"LINEAR","output":107},{"input":91,"interpolation":"LINEAR","output":116},{"input":91,"interpolation":"LINEAR","output":117},{"input":91,"interpolation":"LINEAR","output":118},{"input":91,"interpolation":"LINEAR","output":119},{"input":91,"interpolation":"LINEAR","output":120},{"input":91,"interpolation":"LINEAR","output":121}]},{"channels":[{"sampler":0,"target":{"node":10,"path":"translation"}},{"sampler":1,"target":{"node":10,"path":"rotation"}},{"sampler":2,"target":{"node":10,"path":"scale"}},{"sampler":3,"target":{"node":3,"path":"translation"}},{"sampler":4,"target":{"node":3,"path":"rotation"}},{"sampler":5,"target":{"node":3,"path":"scale"}},{"sampler":6,"target":{"node":0,"path":"translation"}},{"sampler":7,"target":{"node":0,"path":"rotation"}},{"sampler":8,"target":{"node":0,"path":"scale"}},{"sampler":9,"target":{"node":1,"path":"translation"}},{"sampler":10,"target":{"node":1,"path":"rotation"}},{"sampler":11,"target":{"node":1,"path":"scale"}},{"sampler":12,"target":{"node":2,"path":"translation"}},{"sampler":13,"target":{"node":2,"path":"rotation"}},{"sampler":14,"target":{"node":2,"path":"scale"}},{"sampler":15,"target":{"node":6,"path":"translation"}},{"sampler":16,"target":{"node":6,"path":"rotation"}},{"sampler":17,"target":{"node":6,"path":"scale"}},{"sampler":18,"target":{"node":5,"path":"translation"}},{"sampler":19,"target":{"node":5,"path":"rotation"}},{"sampler":20,"target":{"node":5,"path":"scale"}},{"sampler":21,"target":{"node":4,"path":"translation"}},{"sampler":22,"target":{"node":4,"path":"rotation"}},{"sampler":23,"target":{"node":4,"path":"scale"}},{"sampler":24,"target":{"node":9,"path":"translation"}},{"sampler":25,"target":{"node":9,"path":"rotation"}},{"sampler":26,"target":{"node":9,"path":"scale"}},{"sampler":27,"target":{"node":8,"path":"translation"}},{"sampler":28,"target":{"node":8,"path":"rotation"}},{"sampler":29,"target":{"node":8,"path":"scale"}},{"sampler":30,"target":{"node":7,"path":"translation"}},{"sampler":31,"target":{"node":7,"path":"rotation"}},{"sampler":32,"target":{"node":7,"path":"scale"}}],"name":"zipla","samplers":[{"input":122,"interpolation":"LINEAR","output":123},{"input":122,"interpolation":"LINEAR","output":124},{"input":122,"interpolation":"LINEAR","output":125},{"input":122,"interpolation":"LINEAR","output":126},{"input":122,"interpolation":"LINEAR","output":127},{"input":122,"interpolation":"LINEAR","output":128},{"input":122,"interpolation":"LINEAR","output":129},{"input":122,"interpolation":"LINEAR","output":130},{"input":122,"interpolation":"LINEAR","output":131},{"input":122,"interpolation":"LINEAR","output":132},{"input":122,"interpolation":"LINEAR","output":133},{"input":122,"interpolation":"LINEAR","output":134},{"input":122,"interpolation":"LINEAR","output":135},{"input":122,"interpolation":"LINEAR","output":136},{"input":122,"interpolation":"LINEAR","output":134},{"input":122,"interpolation":"LINEAR","output":137},{"input":122,"interpolation":"LINEAR","output":138},{"input":122,"interpolation":"LINEAR","output":125},{"input":122,"interpolation":"LINEAR","output":139},{"input":122,"interpolation":"LINEAR","output":140},{"input":122,"interpolation":"LINEAR","output":141},{"input":122,"interpolation":"LINEAR","output":142},{"input":122,"interpolation":"LINEAR","output":143},{"input":122,"interpolation":"LINEAR","output":144},{"input":122,"interpolation":"LINEAR","output":145},{"input":122,"interpolation":"LINEAR","output":146},{"input":122,"interpolation":"LINEAR","output":147},{"input":122,"interpolation":"LINEAR","output":148},{"input":122,"interpolation":"LINEAR","output":149},{"input":122,"interpolation":"LINEAR","output":150},{"input":122,"interpolation":"LINEAR","output":151},{"input":122,"interpolation":"LINEAR","output":152},{"input":122,"interpolation":"LINEAR","output":153}]}],"materials":[{"doubleSided":true,"name":"oyuncu_malzeme","pbrMetallicRoughness":{"baseColorTexture":{"index":0},"metallicFactor":0,"roughnessFactor":0.8500000238418579}}],"meshes":[{"name":"oyuncu","primitives":[{"attributes":{"POSITION":0,"NORMAL":1,"TEXCOORD_0":2,"JOINTS_0":3,"WEIGHTS_0":4},"indices":5,"material":0}]}],"textures":[{"sampler":0,"source":0}],"images":[{"mimeType":"image/png","name":"atlas","uri":"atlas.png"}],"skins":[{"inverseBindMatrices":6,"joints":[10,3,0,1,2,6,5,4,9,8,7],"name":"iskelet"}],"accessors":[{"bufferView":0,"componentType":5126,"count":288,"max":[0.38499999046325684,1.7200000286102295,0.17000000178813934],"min":[-0.38499999046325684,-0.009999999776482582,-0.19449999928474426],"type":"VEC3"},{"bufferView":1,"componentType":5126,"count":288,"type":"VEC3"},{"bufferView":2,"componentType":5126,"count":288,"type":"VEC2"},{"bufferView":3,"componentType":5121,"count":288,"type":"VEC4"},{"bufferView":4,"componentType":5126,"count":288,"type":"VEC4"},{"bufferView":5,"componentType":5123,"count":432,"type":"SCALAR"},{"bufferView":6,"componentType":5126,"count":11,"type":"MAT4"},{"bufferView":7,"componentType":5126,"count":79,"max":[2.6333333333333333],"min":[0.03333333333333333],"type":"SCALAR"},{"bufferView":8,"componentType":5126,"count":79,"type":"VEC3"},{"bufferView":9,"componentType":5126,"count":79,"type":"VEC4"},{"bufferView":10,"componentType":5126,"count":79,"type":"VEC3"},{"bufferView":11,"componentType":5126,"count":79,"type":"VEC3"},{"bufferView":12,"componentType":5126,"count":79,"type":"VEC3"},{"bufferView":13,"componentType":5126,"count":79,"type":"VEC3"},{"bufferView":14,"componentType":5126,"count":79,"type":"VEC4"},{"bufferView":15,"componentType":5126,"count":79,"type":"VEC3"},{"bufferView":16,"componentType":5126,"count":79,"type":"VEC3"},{"bufferView":17,"componentType":5126,"count":79,"type":"VEC4"},{"bufferView":18,"componentType":5126,"count":79,"type":"VEC3"},{"bufferView":19,"componentType":5126,"count":79,"type":"VEC3"},{"bufferView":20,"componentType":5126,"count":79,"type":"VEC4"},{"bufferView":21,"componentType":5126,"count":79,"type":"VEC3"},{"bufferView":22,"componentType":5126,"count":79,"type":"VEC4"},{"bufferView":23,"componentType":5126,"count":79,"type":"VEC3"},{"bufferView":24,"componentType":5126,"count":79,"type":"VEC4"},{"bufferView":25,"componentType":5126,"count":79,"type":"VEC3"},{"bufferView":26,"componentType":5126,"count":79,"type":"VEC3"},{"bufferView":27,"componentType":5126,"count":25,"max":[0.8333333333333334],"min":[0.03333333333333333],"type":"SCALAR"},{"bufferView":28,"componentType":5126,"count":25,"type":"VEC3"},{"bufferView":29,"componentType":5126,"count":25,"type":"VEC4"},{"bufferView":30,"componentType":5126,"count":25,"type":"VEC3"},{"bufferView":31,"componentType":5126,"count":25,"type":"VEC3"},{"bufferView":32,"componentType":5126,"count":25,"type":"VEC4"},{"bufferView":33,"componentType":5126,"count":25,"type":"VEC3"},{"bufferView":34,"componentType":5126,"count":25,"type":"VEC4"},{"bufferView":35,"componentType":5126,"count":25,"type":"VEC3"},{"bufferView":36,"componentType":5126,"count":25,"type":"VEC3"},{"bufferView":37,"componentType":5126,"count":25,"type":"VEC4"},{"bufferView":38,"componentType":5126,"count":25,"type":"VEC3"},{"bufferView":39,"componentType":5126,"count":25,"type":"VEC3"},{"bufferView":40,"componentType":5126,"count":25,"type":"VEC4"},{"bufferView":41,"componentType":5126,"count":25,"type":"VEC3"},{"bufferView":42,"componentType":5126,"count":25,"type":"VEC4"},{"bufferView":43,"componentType":5126,"count":25,"type":"VEC3"},{"bufferView":44,"componentType":5126,"count":25,"type":"VEC3"},{"bufferView":45,"componentType":5126,"count":25,"type":"VEC4"},{"bufferView":46,"componentType":5126,"count":25,"type":"VEC3"},{"bufferView":47,"componentType":5126,"count":25,"type":"VEC3"},{"bufferView":48,"componentType":5126,"count":25,"type":"VEC4"},{"bufferView":49,"componentType":5126,"count":25,"type":"VEC3"},{"bufferView":50,"componentType":5126,"count":25,"type":"VEC3"},{"bufferView":51,"componentType":5126,"count":25,"type":"VEC4"},{"bufferView":52,"componentType":5126,"count":25,"type":"VEC3"},{"bufferView":53,"componentType":5126,"count":25,"type":"VEC3"},{"bufferView":54,"componentType":5126,"count":25,"type":"VEC4"},{"bufferView":55,"componentType":5126,"count":25,"type":"VEC3"},{"bufferView":56,"componentType":5126,"count":25,"type":"VEC3"},{"bufferView":57,"componentType":5126,"count":25,"type":"VEC4"},{"bufferView":58,"componentType":5126,"count":25,"type":"VEC3"},{"bufferView":59,"componentType":5126,"count":12,"max":[0.4],"min":[0.03333333333333333],"type":"SCALAR"},{"bufferView":60,"componentType":5126,"count":12,"type":"VEC3"},{"bufferView":61,"componentType":5126,"count":12,"type":"VEC4"},{"bufferView":62,"componentType":5126,"count":12,"type":"VEC3"},{"bufferView":63,"componentType":5126,"count":12,"type":"VEC3"},{"bufferView":64,"componentType":5126,"count":12,"type":"VEC4"},{"bufferView":65,"componentType":5126,"count":12,"type":"VEC3"},{"bufferView":66,"componentType":5126,"count":12,"type":"VEC3"},{"bufferView":67,"componentType":5126,"count":12,"type":"VEC4"},{"bufferView":68,"componentType":5126,"count":12,"type":"VEC3"},{"bufferView":69,"componentType":5126,"count":12,"type":"VEC4"},{"bufferView":70,"componentType":5126,"count":12,"type":"VEC3"},{"bufferView":71,"componentType":5126,"count":12,"type":"VEC3"},{"bufferView":72,"componentType":5126,"count":12,"type":"VEC4"},{"bufferView":73,"componentType":5126,"count":12,"type":"VEC3"},{"bufferView":74,"componentType":5126,"count":12,"type":"VEC3"},{"bufferView":75,"componentType":5126,"count":12,"type":"VEC4"},{"bufferView":76,"componentType":5126,"count":12,"type":"VEC3"},{"bufferView":77,"componentType":5126,"count":12,"type":"VEC3"},{"bufferView":78,"componentType":5126,"count":12,"type":"VEC4"},{"bufferView":79,"componentType":5126,"count":12,"type":"VEC3"},{"bufferView":80,"componentType":5126,"count":12,"type":"VEC3"},{"bufferView":81,"componentType":5126,"count":12,"type":"VEC4"},{"bufferView":82,"componentType":5126,"count":12,"type":"VEC3"},{"bufferView":83,"componentType":5126,"count":12,"type":"VEC3"},{"bufferView":84,"componentType":5126,"count":12,"type":"VEC4"},{"bufferView":85,"componentType":5126,"count":12,"type":"VEC3"},{"bufferView":86,"componentType":5126,"count":12,"type":"VEC4"},{"bufferView":87,"componentType":5126,"count":12,"type":"VEC3"},{"bufferView":88,"componentType":5126,"count":12,"type":"VEC3"},{"bufferView":89,"componentType":5126,"count":12,"type":"VEC4"},{"bufferView":90,"componentType":5126,"count":12,"type":"VEC3"},{"bufferView":91,"componentType":5126,"count":13,"max":[0.43333333333333335],"min":[0.03333333333333333],"type":"SCALAR"},{"bufferView":92,"componentType":5126,"count":13,"type":"VEC3"},{"bufferView":93,"componentType":5126,"count":13,"type":"VEC4"},{"bufferView":94,"componentType":5126,"count":13,"type":"VEC3"},{"bufferView":95,"componentType":5126,"count":13,"type":"VEC3"},{"bufferView":96,"componentType":5126,"count":13,"type":"VEC4"},{"bufferView":97,"componentType":5126,"count":13,"type":"VEC3"},{"bufferView":98,"componentType":5126,"count":13,"type":"VEC4"},{"bufferView":99,"componentType":5126,"count":13,"type":"VEC3"},{"bufferView":100,"componentType":5126,"count":13,"type":"VEC4"},{"bufferView":101,"componentType":5126,"count":13,"type":"VEC3"},{"bufferView":102,"componentType":5126,"count":13,"type":"VEC3"},{"bufferView":103,"componentType":5126,"count":13,"type":"VEC4"},{"bufferView":104,"componentType":5126,"count":13,"type":"VEC3"},{"bufferView":105,"componentType":5126,"count":13,"type":"VEC3"},{"bufferView":106,"componentType":5126,"count":13,"type":"VEC4"},{"bufferView":107,"componentType":5126,"count":13,"type":"VEC3"},{"bufferView":108,"componentType":5126,"count":13,"type":"VEC3"},{"bufferView":109,"componentType":5126,"count":13,"type":"VEC4"},{"bufferView":110,"componentType":5126,"count":13,"type":"VEC3"},{"bufferView":111,"componentType":5126,"count":13,"type":"VEC3"},{"bufferView":112,"componentType":5126,"count":13,"type":"VEC4"},{"bufferView":113,"componentType":5126,"count":13,"type":"VEC3"},{"bufferView":114,"componentType":5126,"count":13,"type":"VEC3"},{"bufferView":115,"componentType":5126,"count":13,"type":"VEC4"},{"bufferView":116,"componentType":5126,"count":13,"type":"VEC3"},{"bufferView":117,"componentType":5126,"count":13,"type":"VEC4"},{"bufferView":118,"componentType":5126,"count":13,"type":"VEC3"},{"bufferView":119,"componentType":5126,"count":13,"type":"VEC3"},{"bufferView":120,"componentType":5126,"count":13,"type":"VEC4"},{"bufferView":121,"componentType":5126,"count":13,"type":"VEC3"},{"bufferView":122,"componentType":5126,"count":14,"max":[0.4666666666666667],"min":[0.03333333333333333],"type":"SCALAR"},{"bufferView":123,"componentType":5126,"count":14,"type":"VEC3"},{"bufferView":124,"componentType":5126,"count":14,"type":"VEC4"},{"bufferView":125,"componentType":5126,"count":14,"type":"VEC3"},{"bufferView":126,"componentType":5126,"count":14,"type":"VEC3"},{"bufferView":127,"componentType":5126,"count":14,"type":"VEC4"},{"bufferView":128,"componentType":5126,"count":14,"type":"VEC3"},{"bufferView":129,"componentType":5126,"count":14,"type":"VEC3"},{"bufferView":130,"componentType":5126,"count":14,"type":"VEC4"},{"bufferView":131,"componentType":5126,"count":14,"type":"VEC3"},{"bufferView":132,"componentType":5126,"count":14,"type":"VEC3"},{"bufferView":133,"componentType":5126,"count":14,"type":"VEC4"},{"bufferView":134,"componentType":5126,"count":14,"type":"VEC3"},{"bufferView":135,"componentType":5126,"count":14,"type":"VEC3"},{"bufferView":136,"componentType":5126,"count":14,"type":"VEC4"},{"bufferView":137,"componentType":5126,"count":14,"type":"VEC3"},{"bufferView":138,"componentType":5126,"count":14,"type":"VEC4"},{"bufferView":139,"componentType":5126,"count":14,"type":"VEC3"},{"bufferView":140,"componentType":5126,"count":14,"type":"VEC4"},{"bufferView":141,"componentType":5126,"count":14,"type":"VEC3"},{"bufferView":142,"componentType":5126,"count":14,"type":"VEC3"},{"bufferView":143,"componentType":5126,"count":14,"type":"VEC4"},{"bufferView":144,"componentType":5126,"count":14,"type":"VEC3"},{"bufferView":145,"componentType":5126,"count":14,"type":"VEC3"},{"bufferView":146,"componentType":5126,"count":14,"type":"VEC4"},{"bufferView":147,"componentType":5126,"count":14,"type":"VEC3"},{"bufferView":148,"componentType":5126,"count":14,"type":"VEC3"},{"bufferView":149,"componentType":5126,"count":14,"type":"VEC4"},{"bufferView":150,"componentType":5126,"count":14,"type":"VEC3"},{"bufferView":151,"componentType":5126,"count":14,"type":"VEC3"},{"bufferView":152,"componentType":5126,"count":14,"type":"VEC4"},{"bufferView":153,"componentType":5126,"count":14,"type":"VEC3"}],"bufferViews":[{"buffer":0,"byteLength":3456,"byteOffset":0,"target":34962},{"buffer":0,"byteLength":3456,"byteOffset":3456,"target":34962},{"buffer":0,"byteLength":2304,"byteOffset":6912,"target":34962},{"buffer":0,"byteLength":1152,"byteOffset":9216,"target":34962},{"buffer":0,"byteLength":4608,"byteOffset":10368,"target":34962},{"buffer":0,"byteLength":864,"byteOffset":14976,"target":34963},{"buffer":0,"byteLength":704,"byteOffset":15840},{"buffer":0,"byteLength":316,"byteOffset":16544},{"buffer":0,"byteLength":948,"byteOffset":16860},{"buffer":0,"byteLength":1264,"byteOffset":17808},{"buffer":0,"byteLength":948,"byteOffset":19072},{"buffer":0,"byteLength":948,"byteOffset":20020},{"buffer":0,"byteLength":948,"byteOffset":20968},{"buffer":0,"byteLength":948,"byteOffset":21916},{"buffer":0,"byteLength":1264,"byteOffset":22864},{"buffer":0,"byteLength":948,"byteOffset":24128},{"buffer":0,"byteLength":948,"byteOffset":25076},{"buffer":0,"byteLength":1264,"byteOffset":26024},{"buffer":0,"byteLength":948,"byteOffset":27288},{"buffer":0,"byteLength":948,"byteOffset":28236},{"buffer":0,"byteLength":1264,"byteOffset":29184},{"buffer":0,"byteLength":948,"byteOffset":30448},{"buffer":0,"byteLength":1264,"byteOffset":31396},{"buffer":0,"byteLength":948,"byteOffset":32660},{"buffer":0,"byteLength":1264,"byteOffset":33608},{"buffer":0,"byteLength":948,"byteOffset":34872},{"buffer":0,"byteLength":948,"byteOffset":35820},{"buffer":0,"byteLength":100,"byteOffset":36768},{"buffer":0,"byteLength":300,"byteOffset":36868},{"buffer":0,"byteLength":400,"byteOffset":37168},{"buffer":0,"byteLength":300,"byteOffset":37568},{"buffer":0,"byteLength":300,"byteOffset":37868},{"buffer":0,"byteLength":400,"byteOffset":38168},{"buffer":0,"byteLength":300,"byteOffset":38568},{"buffer":0,"byteLength":400,"byteOffset":38868},{"buffer":0,"byteLength":300,"byteOffset":39268},{"buffer":0,"byteLength":300,"byteOffset":39568},{"buffer":0,"byteLength":400,"byteOffset":39868},{"buffer":0,"byteLength":300,"byteOffset":40268},{"buffer":0,"byteLength":300,"byteOffset":40568},{"buffer":0,"byteLength":400,"byteOffset":40868},{"buffer":0,"byteLength":300,"byteOffset":41268},{"buffer":0,"byteLength":400,"byteOffset":41568},{"buffer":0,"byteLength":300,"byteOffset":41968},{"buffer":0,"byteLength":300,"byteOffset":42268},{"buffer":0,"byteLength":400,"byteOffset":42568},{"buffer":0,"byteLength":300,"byteOffset":42968},{"buffer":0,"byteLength":300,"byteOffset":43268},{"buffer":0,"byteLength":400,"byteOffset":43568},{"buffer":0,"byteLength":300,"byteOffset":43968},{"buffer":0,"byteLength":300,"byteOffset":44268},{"buffer":0,"byteLength":400,"byteOffset":44568},{"buffer":0,"byteLength":300,"byteOffset":44968},{"buffer":0,"byteLength":300,"byteOffset":45268},{"buffer":0,"byteLength":400,"byteOffset":45568},{"buffer":0,"byteLength":300,"byteOffset":45968},{"buffer":0,"byteLength":300,"byteOffset":46268},{"buffer":0,"byteLength":400,"byteOffset":46568},{"buffer":0,"byteLength":300,"byteOffset":46968},{"buffer":0,"byteLength":48,"byteOffset":47268},{"buffer":0,"byteLength":144,"byteOffset":47316},{"buffer":0,"byteLength":192,"byteOffset":47460},{"buffer":0,"byteLength":144,"byteOffset":47652},{"buffer":0,"byteLength":144,"byteOffset":47796},{"buffer":0,"byteLength":192,"byteOffset":47940},{"buffer":0,"byteLength":144,"byteOffset":48132},{"buffer":0,"byteLength":144,"byteOffset":48276},{"buffer":0,"byteLength":192,"byteOffset":48420},{"buffer":0,"byteLength":144,"byteOffset":48612},{"buffer":0,"byteLength":192,"byteOffset":48756},{"buffer":0,"byteLength":144,"byteOffset":48948},{"buffer":0,"byteLength":144,"byteOffset":49092},{"buffer":0,"byteLength":192,"byteOffset":49236},{"buffer":0,"byteLength":144,"byteOffset":49428},{"buffer":0,"byteLength":144,"byteOffset":49572},{"buffer":0,"byteLength":192,"byteOffset":49716},{"buffer":0,"byteLength":144,"byteOffset":49908},{"buffer":0,"byteLength":144,"byteOffset":50052},{"buffer":0,"byteLength":192,"byteOffset":50196},{"buffer":0,"byteLength":144,"byteOffset":50388},{"buffer":0,"byteLength":144,"byteOffset":50532},{"buffer":0,"byteLength":192,"byteOffset":50676},{"buffer":0,"byteLength":144,"byteOffset":50868},{"buffer":0,"byteLength":144,"byteOffset":51012},{"buffer":0,"byteLength":192,"byteOffset":51156},{"buffer":0,"byteLength":144,"byteOffset":51348},{"buffer":0,"byteLength":192,"byteOffset":51492},{"buffer":0,"byteLength":144,"byteOffset":51684},{"buffer":0,"byteLength":144,"byteOffset":51828},{"buffer":0,"byteLength":192,"byteOffset":51972},{"buffer":0,"byteLength":144,"byteOffset":52164},{"buffer":0,"byteLength":52,"byteOffset":52308},{"buffer":0,"byteLength":156,"byteOffset":52360},{"buffer":0,"byteLength":208,"byteOffset":52516},{"buffer":0,"byteLength":156,"byteOffset":52724},{"buffer":0,"byteLength":156,"byteOffset":52880},{"buffer":0,"byteLength":208,"byteOffset":53036},{"buffer":0,"byteLength":156,"byteOffset":53244},{"buffer":0,"byteLength":208,"byteOffset":53400},{"buffer":0,"byteLength":156,"byteOffset":53608},{"buffer":0,"byteLength":208,"byteOffset":53764},{"buffer":0,"byteLength":156,"byteOffset":53972},{"buffer":0,"byteLength":156,"byteOffset":54128},{"buffer":0,"byteLength":208,"byteOffset":54284},{"buffer":0,"byteLength":156,"byteOffset":54492},{"buffer":0,"byteLength":156,"byteOffset":54648},{"buffer":0,"byteLength":208,"byteOffset":54804},{"buffer":0,"byteLength":156,"byteOffset":55012},{"buffer":0,"byteLength":156,"byteOffset":55168},{"buffer":0,"byteLength":208,"byteOffset":55324},{"buffer":0,"byteLength":156,"byteOffset":55532},{"buffer":0,"byteLength":156,"byteOffset":55688},{"buffer":0,"byteLength":208,"byteOffset":55844},{"buffer":0,"byteLength":156,"byteOffset":56052},{"buffer":0,"byteLength":156,"byteOffset":56208},{"buffer":0,"byteLength":208,"byteOffset":56364},{"buffer":0,"byteLength":156,"byteOffset":56572},{"buffer":0,"byteLength":208,"byteOffset":56728},{"buffer":0,"byteLength":156,"byteOffset":56936},{"buffer":0,"byteLength":156,"byteOffset":57092},{"buffer":0,"byteLength":208,"byteOffset":57248},{"buffer":0,"byteLength":156,"byteOffset":57456},{"buffer":0,"byteLength":56,"byteOffset":57612},{"buffer":0,"byteLength":168,"byteOffset":57668},{"buffer":0,"byteLength":224,"byteOffset":57836},{"buffer":0,"byteLength":168,"byteOffset":58060},{"buffer":0,"byteLength":168,"byteOffset":58228},{"buffer":0,"byteLength":224,"byteOffset":58396},{"buffer":0,"byteLength":168,"byteOffset":58620},{"buffer":0,"byteLength":168,"byteOffset":58788},{"buffer":0,"byteLength":224,"byteOffset":58956},{"buffer":0,"byteLength":168,"byteOffset":59180},{"buffer":0,"byteLength":168,"byteOffset":59348},{"buffer":0,"byteLength":224,"byteOffset":59516},{"buffer":0,"byteLength":168,"byteOffset":59740},{"buffer":0,"byteLength":168,"byteOffset":59908},{"buffer":0,"byteLength":224,"byteOffset":60076},{"buffer":0,"byteLength":168,"byteOffset":60300},{"buffer":0,"byteLength":224,"byteOffset":60468},{"buffer":0,"byteLength":168,"byteOffset":60692},{"buffer":0,"byteLength":224,"byteOffset":60860},{"buffer":0,"byteLength":168,"byteOffset":61084},{"buffer":0,"byteLength":168,"byteOffset":61252},{"buffer":0,"byteLength":224,"byteOffset":61420},{"buffer":0,"byteLength":168,"byteOffset":61644},{"buffer":0,"byteLength":168,"byteOffset":61812},{"buffer":0,"byteLength":224,"byteOffset":61980},{"buffer":0,"byteLength":168,"byteOffset":62204},{"buffer":0,"byteLength":168,"byteOffset":62372},{"buffer":0,"byteLength":224,"byteOffset":62540},{"buffer":0,"byteLength":168,"byteOffset":62764},{"buffer":0,"byteLength":168,"byteOffset":62932},{"buffer":0,"byteLength":224,"byteOffset":63100},{"buffer":0,"byteLength":168,"byteOffset":63324}],"samplers":[{"magFilter":9728,"minFilter":9984}],"buffers":[{"byteLength":63492,"uri":"oyuncu.bin"}]}